<?xml version="1.0" standalone="no"?>
<!DOCTYPE svg PUBLIC "-//W3C//DTD SVG 20010904//EN"
 "http://www.w3.org/TR/2001/REC-SVG-20010904/DTD/svg10.dtd">
<svg version="1.0" xmlns="http://www.w3.org/2000/svg"
 width="50.000000pt" height="50.000000pt" viewBox="0 0 50.000000 50.000000"
 preserveAspectRatio="xMidYMid meet">

<g transform="translate(0.000000,50.000000) scale(0.100000,-0.100000)"
fill="#000000" stroke="none">
<path d="M320 462 c0 -4 5 -13 12 -20 9 -9 4 -12 -22 -12 -24 0 -42 -8 -57
-24 -19 -20 -35 -24 -93 -28 -62 -3 -74 -7 -101 -34 -42 -43 -49 -97 -17 -144
36 -54 58 -60 206 -60 146 0 179 -9 200 -55 7 -14 12 -39 12 -55 0 -17 5 -30
11 -30 8 0 10 15 6 46 -3 34 -13 55 -36 78 l-31 31 -153 5 c-83 3 -160 10
-170 14 -21 10 -47 57 -47 86 0 33 26 75 55 88 14 7 50 12 79 12 44 0 58 -5
79 -25 24 -25 30 -26 124 -23 l98 3 0 55 0 55 -45 5 c-25 3 -60 13 -77 23 -18
10 -33 14 -33 9z m140 -92 l0 -40 -90 0 c-73 0 -90 3 -90 15 0 8 -7 15 -15 15
-8 0 -15 5 -15 10 0 6 7 10 15 10 8 0 15 7 15 15 0 12 17 15 90 15 l90 0 0
-40z"/>
</g>
</svg>
