<?xml version="1.0" encoding="utf-8"?>
<!-- Svg Vector Icons : http://www.onlinewebfonts.com/icon -->
<!DOCTYPE svg PUBLIC "-//W3C//DTD SVG 1.1//EN" "http://www.w3.org/Graphics/SVG/1.1/DTD/svg11.dtd">
<svg version="1.1" xmlns="http://www.w3.org/2000/svg" xmlns:xlink="http://www.w3.org/1999/xlink" x="0px" y="0px" viewBox="0 0 1000 1000" enable-background="new 0 0 1000 1000" xml:space="preserve">
<!-- <metadata> Svg Vector Icons : http://www.onlinewebfonts.com/icon </metadata> -->
<g>
<path fill="#ffffff" d="M541.2,530.4c0-19.3-15.4-39.5-42.4-39.5c-24.1,0-39.5,15.4-39.5,39.5c0,6.7,0,15.4,4.8,22.2c1.9,4.8,11.6,6.7,11.6,13.5c0,4.8-20.2,39.5-20.2,43.4c0,6.7,1.9,4.8,1.9,6.7h86.7l1.9-6.7c0-4.8-20.2-39.5-20.2-43.4C525.8,556.4,541.2,544.8,541.2,530.4z"/>
<path fill="#ffffff" d="M881.4,110.2h-51.1c-80,0-225.5-37.6-283.3-76.1C532.5,25.4,516.2,10,498.8,10c-10.6,0-80,41.4-95.4,48.2c-27,10.6-53,19.3-77.1,26c-15.4,3.9-30.8,8.7-46.3,10.6c-35.7,6.7-73.2,11.6-110.8,15.4h-53c-13.5,0-24.1,19.3-24.1,26L94.1,248c9.6,82.9,15.4,170.6,35.7,253.4c22.2,89.6,51.1,186,106,272.7c17.3,30.8,44.3,58.8,66.5,89.6C322.5,894.6,459.3,990,498.8,990c15.4,0,64.6-26,70.3-27.9C777.3,844.5,839,629.6,874.6,470.6c15.4-72.3,24.1-155.1,30.8-225.5l1.9-76.1C908.4,154.5,910.3,117,881.4,110.2z M684.8,663.3c-1.9,8.7-20.2,39.5-37.6,39.5H350.4c-18.3-1.9-36.6-22.2-35.7-36.6V458.1c4.8-26,22.2-36.6,46.3-41.4v-94.4c17.3-84.8,77.1-115.6,136.8-115.6c48.2,0,99.3,17.3,128.2,82.9c4.8,8.7,10.6,27.9,10.6,34.7v91.5c15.4,1.9,46.3,24.1,46.3,41.4v206.2H684.8z"/>
<path fill="#ffffff" d="M498.8,274c-30.8,0-59.7,15.4-68.4,61.7v80.9h139.7v-80.9C569.2,301,532.5,274,498.8,274z"/></g>
</svg>