<?xml version="1.0" standalone="no"?>
<!DOCTYPE svg PUBLIC "-//W3C//DTD SVG 20010904//EN"
 "http://www.w3.org/TR/2001/REC-SVG-20010904/DTD/svg10.dtd">
<svg version="1.0" xmlns="http://www.w3.org/2000/svg"
 width="67.000000pt" height="67.000000pt" viewBox="0 0 67.000000 67.000000"
 preserveAspectRatio="xMidYMid meet">

<g transform="translate(0.000000,67.000000) scale(0.100000,-0.100000)"
fill="#E8B012" stroke="none">
<path d="M70 510 c0 -5 -9 -10 -20 -10 -16 0 -20 -7 -20 -30 0 -23 4 -30 20
-30 11 0 20 -4 20 -10 0 -6 27 -10 60 -10 49 0 62 4 72 20 15 24 70 27 88 5
10 -12 7 -20 -19 -44 -43 -40 -43 -91 -1 -131 34 -32 37 -45 14 -54 -32 -12
-69 -6 -82 14 -10 16 -23 20 -72 20 -33 0 -60 -4 -60 -10 0 -5 -9 -10 -20 -10
-16 0 -20 -7 -20 -30 0 -23 4 -30 20 -30 11 0 20 -4 20 -10 0 -6 29 -10 66
-10 57 0 67 3 71 20 4 16 14 20 44 20 31 0 43 6 61 30 12 17 29 30 38 30 18 0
54 35 63 63 9 25 46 21 73 -8 19 -21 32 -25 79 -25 30 0 55 5 55 10 0 6 9 10
20 10 11 0 20 4 20 9 0 5 -9 7 -20 4 -11 -3 -20 0 -20 6 0 6 9 11 20 11 13 0
20 7 20 20 0 13 -7 20 -20 20 -11 0 -20 5 -20 10 0 6 -25 10 -55 10 -47 0 -60
-4 -79 -25 -27 -29 -64 -33 -73 -7 -9 27 -45 62 -63 62 -9 0 -26 14 -38 30
-18 24 -30 30 -61 30 -30 0 -40 4 -44 20 -4 17 -14 20 -71 20 -37 0 -66 -4
-66 -10z m0 -30 c0 -5 -7 -10 -15 -10 -8 0 -15 5 -15 10 0 6 7 10 15 10 8 0
15 -4 15 -10z m285 -145 c0 -25 -4 -30 -24 -30 -32 0 -49 28 -31 50 7 9 23 15
34 13 16 -2 21 -10 21 -33z m-288 -151 c-3 -3 -12 -4 -19 -1 -8 3 -5 6 6 6 11
1 17 -2 13 -5z"/>
</g>
</svg>
