<?xml version="1.0" ?><svg enable-background="new 0 0 512 512" id="Layer_1" version="1.1" viewBox="0 0 512 512" xml:space="preserve" xmlns="http://www.w3.org/2000/svg" xmlns:xlink="http://www.w3.org/1999/xlink"><g><g><linearGradient gradientUnits="userSpaceOnUse" id="SVGID_1_" x1="-0.0000027" x2="512" y1="256" y2="256"><stop offset="0" style="stop-color:#FFCA05"/><stop offset="1" style="stop-color:#FAAC18"/></linearGradient><circle cx="256" cy="256" fill="url(#SVGID_1_)" r="256"/><linearGradient gradientUnits="userSpaceOnUse" id="SVGID_2_" x1="42.6666641" x2="469.3333435" y1="256.0005188" y2="256.0005188"><stop offset="0" style="stop-color:#FAAC18"/><stop offset="1" style="stop-color:#FFCA05"/></linearGradient><path d="M256,469.3338623c-117.6315155,0-213.3333435-95.7018738-213.3333435-213.3333435    c0-117.6309204,95.7018204-213.333313,213.3333435-213.333313c117.6356812,0,213.3333435,95.7024002,213.3333435,213.333313    C469.3333435,373.6319885,373.6356812,469.3338623,256,469.3338623z" fill="url(#SVGID_2_)"/></g><path d="M350.2879944,144.0016022H177.7120056c-8.284317,0-15.0000458,6.7157288-15.0000458,15v209.9973297   c0,8.28479,6.7157288,14.9994812,15.0000458,14.9994812h172.5759888c8.2836914,0,14.9994202-6.7146912,14.9994202-14.9994812   V159.0016022C365.2874146,150.7173309,358.5716858,144.0016022,350.2879944,144.0016022z M251.2533264,156.4720001h25.4927673v10   h-25.4927673V156.4720001z M295.9135437,365.0245361h-63.8277283v-10h63.8277283V365.0245361z M339.0378113,336.3061218   H188.9615479V178.9994659h150.0762634V336.3061218z" opacity="0.3"/><path d="M342.2879944,136.0016022H169.7120056c-8.284317,0-15.0000458,6.7157288-15.0000458,15v209.9973297   c0,8.28479,6.7157288,14.9994812,15.0000458,14.9994812h172.5759888c8.2836914,0,14.9994202-6.7146912,14.9994202-14.9994812   V151.0016022C357.2874146,142.7173309,350.5716858,136.0016022,342.2879944,136.0016022z M243.2533264,148.4720001h25.4927673v10   h-25.4927673V148.4720001z M287.9135437,357.0245361h-63.8277283v-10h63.8277283V357.0245361z M331.0378113,328.3061218   H180.9615479V170.9994659h150.0762634V328.3061218z" fill="#FFFFFF"/></g></svg>