<?xml version="1.0" standalone="no"?>
<!DOCTYPE svg PUBLIC "-//W3C//DTD SVG 20010904//EN"
 "http://www.w3.org/TR/2001/REC-SVG-20010904/DTD/svg10.dtd">
<svg version="1.0" xmlns="http://www.w3.org/2000/svg"
 width="289.000000pt" height="289.000000pt" viewBox="0 0 289.000000 289.000000"
 preserveAspectRatio="xMidYMid meet">

<g transform="translate(0.000000,289.000000) scale(0.100000,-0.100000)"
fill="#e51609" stroke="none">
<path d="M1320 2705 c-8 -2 -49 -9 -90 -15 -183 -30 -361 -108 -508 -223 -77
-61 -96 -94 -88 -155 5 -41 2 -51 -33 -106 -71 -108 -116 -230 -129 -347 l-7
-62 -50 -27 c-40 -20 -55 -36 -75 -77 -23 -46 -30 -52 -79 -68 -71 -22 -151
-97 -181 -168 -81 -186 17 -413 197 -458 32 -9 43 -17 48 -37 24 -97 150 -151
243 -103 47 24 70 50 88 98 16 47 20 646 4 705 -14 49 -53 94 -95 110 -31 11
-35 16 -35 48 0 90 63 268 129 364 29 42 33 44 61 36 44 -13 79 1 151 60 79
64 217 132 329 162 116 30 367 33 480 4 145 -37 256 -91 357 -173 63 -51 100
-65 142 -53 27 7 32 4 60 -36 66 -90 131 -273 131 -364 0 -32 -4 -37 -35 -48
-42 -16 -81 -61 -95 -110 -6 -22 -10 -165 -10 -352 1 -382 5 -402 104 -452
l39 -20 -6 -58 c-21 -238 -284 -447 -608 -484 l-55 -6 -17 35 c-26 55 -65 70
-187 70 -118 0 -159 -14 -185 -65 -24 -46 -19 -113 10 -148 38 -46 70 -54 194
-50 106 3 111 4 140 32 17 16 33 37 36 47 4 13 21 19 63 24 260 30 478 151
594 329 44 68 78 169 78 231 0 41 1 43 45 60 48 18 89 62 100 107 5 20 16 28
48 37 184 46 282 283 193 464 -36 74 -109 140 -177 162 -49 16 -56 22 -79 68
-20 41 -35 57 -75 77 -49 26 -50 28 -57 83 -17 132 -63 257 -136 364 -28 42
-38 64 -31 74 15 23 10 72 -10 105 -42 69 -249 196 -403 248 -128 43 -215 58
-368 62 -80 1 -152 1 -160 -1z m300 -69 c185 -28 367 -102 497 -201 37 -28 74
-63 82 -77 13 -23 13 -29 -2 -52 -20 -30 -67 -36 -87 -11 -7 9 -52 42 -101 74
-161 108 -343 161 -555 161 -245 0 -447 -65 -621 -201 -66 -52 -95 -59 -125
-32 -41 37 -8 85 118 169 224 149 516 211 794 170z m-1069 -929 c20 -13 39
-37 46 -57 9 -30 11 -240 3 -662 0 -9 -12 -30 -26 -47 -45 -54 -129 -51 -174
7 -15 18 -20 40 -20 87 0 43 -5 66 -15 75 -21 18 -43 5 -47 -27 -4 -34 -23
-33 -86 4 -115 66 -155 239 -85 366 32 57 109 117 149 117 l24 0 0 -170 c0
-143 2 -172 15 -176 8 -4 22 -1 30 6 12 10 15 48 15 214 0 223 4 240 60 268
46 24 70 23 111 -5z m1904 9 c59 -25 65 -50 65 -274 0 -164 3 -202 15 -212 8
-7 22 -10 30 -6 13 4 15 33 15 176 l0 170 24 0 c40 0 117 -60 149 -117 70
-127 30 -300 -85 -366 -63 -37 -82 -38 -86 -4 -4 32 -26 45 -47 27 -10 -9 -15
-32 -15 -75 0 -47 -5 -69 -20 -87 -60 -77 -173 -53 -200 41 -13 47 -10 618 4
661 12 36 65 80 98 80 10 0 34 -6 53 -14z m-833 -1403 c24 -22 24 -77 -2 -103
-17 -17 -33 -20 -117 -20 -86 0 -99 3 -120 22 -27 25 -30 64 -7 96 14 20 23
22 121 22 85 0 110 -3 125 -17z"/>
<path d="M1331 1944 c-227 -49 -413 -241 -451 -466 -24 -140 9 -301 84 -414
20 -30 36 -62 36 -71 0 -10 -15 -83 -34 -162 -19 -80 -32 -151 -29 -158 10
-25 42 -13 189 70 l148 83 61 -14 c129 -30 306 2 423 77 174 113 267 281 267
486 0 170 -51 293 -170 412 -141 141 -334 199 -524 157z m219 -58 c88 -19 143
-45 217 -100 147 -111 225 -309 194 -492 -51 -294 -341 -487 -630 -419 l-64
15 -126 -69 c-69 -38 -127 -69 -128 -67 -1 1 12 61 28 134 l31 132 -36 49
c-135 183 -138 414 -10 603 74 109 187 184 319 213 79 18 126 18 205 1z"/>
<path d="M1185 1430 c-20 -23 -23 -63 -5 -85 28 -33 110 -7 110 35 0 20 -51
70 -70 70 -9 0 -25 -9 -35 -20z"/>
<path d="M1412 1434 c-26 -18 -30 -65 -6 -88 33 -34 104 -10 104 34 0 23 -42
70 -61 70 -8 0 -25 -7 -37 -16z"/>
<path d="M1630 1430 c-41 -41 -13 -100 47 -100 55 0 73 46 35 90 -31 35 -54
38 -82 10z"/>
</g>
</svg>
