<?xml version="1.0" standalone="no"?>
<!DOCTYPE svg PUBLIC "-//W3C//DTD SVG 20010904//EN"
 "http://www.w3.org/TR/2001/REC-SVG-20010904/DTD/svg10.dtd">
<svg version="1.0" xmlns="http://www.w3.org/2000/svg"
 width="512.000000pt" height="512.000000pt" viewBox="0 0 512.000000 512.000000"
 preserveAspectRatio="xMidYMid meet">

<g transform="translate(0.000000,512.000000) scale(0.100000,-0.100000)"
fill="#06c37e" stroke="none">
<path d="M466 4949 c-62 -15 -153 -68 -197 -116 -22 -24 -55 -74 -72 -111
l-32 -67 -3 -382 -3 -383 25 -25 c33 -33 79 -33 111 0 l25 24 0 352 c0 247 4
364 12 393 16 55 99 138 154 154 29 8 146 12 393 12 l352 0 24 25 c33 32 33
78 0 110 l-24 25 -363 -1 c-200 -1 -380 -5 -402 -10z"/>
<path d="M3865 4936 c-33 -33 -33 -79 0 -111 l24 -25 352 0 c247 0 364 -4 393
-12 55 -16 138 -99 154 -154 8 -29 12 -146 12 -393 l0 -352 25 -24 c32 -33 78
-33 111 0 l25 25 -3 383 -3 382 -32 67 c-44 93 -100 151 -191 196 l-76 37
-383 3 -383 3 -25 -25z"/>
<path d="M2370 4709 c-547 -67 -1010 -377 -1278 -854 -140 -248 -200 -481
-209 -812 l-6 -191 26 -26 c33 -33 79 -34 111 -3 22 22 23 32 29 218 11 347
83 587 258 850 84 126 282 324 408 408 174 115 380 199 586 237 138 26 392 26
530 0 319 -59 574 -194 806 -425 182 -182 293 -359 369 -590 53 -159 70 -266
77 -480 6 -186 7 -196 29 -218 32 -31 78 -30 111 3 l26 26 -6 191 c-6 208 -21
316 -67 474 -78 267 -218 501 -425 709 -248 250 -551 408 -900 469 -109 20
-372 27 -475 14z"/>
<path d="M2420 4314 c-201 -26 -408 -102 -565 -207 -182 -122 -343 -304 -437
-492 -94 -187 -127 -329 -135 -577 l-6 -186 26 -26 c34 -34 79 -35 112 -1 24
23 25 29 25 162 0 231 36 389 130 572 105 205 278 375 487 480 321 160 686
160 1006 0 211 -106 381 -273 487 -480 94 -183 130 -342 130 -577 0 -128 1
-134 25 -157 33 -34 78 -33 112 1 l26 26 -6 186 c-8 248 -41 390 -135 577 -64
129 -124 210 -245 333 -166 169 -383 288 -627 343 -83 19 -331 33 -410 23z"/>
<path d="M2397 3904 c-229 -41 -444 -186 -575 -387 -100 -153 -142 -313 -142
-539 0 -124 1 -130 25 -153 31 -32 78 -33 109 -2 22 22 24 33 28 188 5 139 9
176 30 241 39 118 92 203 182 294 90 90 175 143 294 182 67 22 94 26 212 26
118 0 145 -4 212 -26 119 -39 204 -92 294 -182 90 -91 143 -176 182 -294 21
-65 25 -102 30 -241 4 -155 6 -166 28 -188 31 -31 78 -30 109 2 24 23 25 29
25 153 0 294 -79 502 -260 682 -206 207 -494 296 -783 244z"/>
<path d="M2441 3504 c-83 -22 -165 -71 -224 -133 -102 -107 -137 -208 -137
-399 0 -117 1 -124 25 -147 29 -30 74 -32 106 -6 23 18 24 27 30 163 5 123 9
150 30 193 30 64 90 124 154 155 69 33 199 34 265 2 71 -35 114 -75 150 -144
33 -61 34 -68 39 -206 6 -136 7 -145 30 -163 32 -26 77 -24 106 6 24 23 25 30
25 147 0 191 -35 292 -137 399 -118 124 -300 177 -462 133z"/>
<path d="M2505 3095 c-24 -23 -25 -31 -25 -135 0 -104 1 -112 25 -135 15 -16
36 -25 55 -25 19 0 40 9 55 25 24 23 25 31 25 135 0 104 -1 112 -25 135 -15
16 -36 25 -55 25 -19 0 -40 -9 -55 -25z"/>
<path d="M185 2615 c-16 -15 -25 -36 -25 -55 0 -19 9 -40 25 -55 l24 -25 2351
0 2351 0 24 25 c33 32 33 78 0 110 l-24 25 -2351 0 -2351 0 -24 -25z"/>
<path d="M903 2294 l-26 -26 6 -191 c6 -208 21 -316 67 -473 77 -266 218 -502
420 -704 255 -256 551 -412 905 -476 139 -25 431 -25 570 0 353 64 654 221
900 470 207 208 348 444 425 709 46 158 61 266 67 474 l6 191 -26 26 c-33 33
-79 34 -111 3 -22 -22 -23 -32 -29 -218 -7 -214 -24 -321 -77 -480 -76 -231
-187 -408 -369 -590 -232 -231 -487 -366 -806 -425 -138 -26 -392 -26 -530 0
-206 38 -412 122 -586 237 -126 84 -324 282 -408 408 -175 263 -247 503 -258
850 -6 186 -7 196 -29 218 -32 31 -78 30 -111 -3z"/>
<path d="M1305 2295 c-24 -23 -25 -30 -25 -147 0 -196 41 -308 149 -411 190
-182 472 -182 662 0 108 103 149 215 149 411 0 117 -1 124 -25 147 -29 30 -74
32 -106 6 -23 -18 -24 -27 -30 -163 -5 -128 -8 -148 -32 -194 -38 -75 -69
-107 -139 -145 -58 -31 -70 -34 -148 -34 -78 0 -90 3 -148 34 -69 38 -110 80
-144 151 -18 37 -22 70 -27 188 -6 136 -7 145 -30 163 -32 26 -77 24 -106 -6z"/>
<path d="M1705 2295 c-24 -23 -25 -31 -25 -135 0 -104 1 -112 25 -135 15 -16
36 -25 55 -25 19 0 40 9 55 25 24 23 25 31 25 135 0 104 -1 112 -25 135 -15
16 -36 25 -55 25 -19 0 -40 -9 -55 -25z"/>
<path d="M2506 2297 c-22 -22 -24 -33 -28 -188 -6 -187 -27 -271 -95 -389 -49
-83 -180 -214 -263 -263 -113 -66 -205 -89 -360 -93 -131 -3 -136 -4 -157 -29
-42 -48 -21 -106 45 -125 53 -14 166 -12 267 5 360 63 647 350 710 710 8 48
15 146 15 217 0 124 -1 130 -25 153 -31 32 -78 33 -109 2z"/>
<path d="M2906 2297 c-22 -22 -24 -32 -29 -203 -3 -101 -12 -208 -21 -245 -54
-237 -187 -463 -359 -611 -92 -79 -157 -120 -293 -184 -61 -29 -114 -60 -118
-69 -12 -33 -5 -67 20 -92 34 -34 74 -28 196 30 140 66 240 137 359 256 261
261 379 559 379 955 0 132 -1 138 -25 161 -31 32 -78 33 -109 2z"/>
<path d="M3306 2297 c-22 -22 -23 -32 -29 -223 -7 -224 -24 -325 -83 -495 -70
-202 -176 -375 -324 -533 -99 -105 -108 -130 -69 -180 15 -20 29 -26 57 -26
33 0 45 8 117 83 206 215 369 525 429 817 24 120 36 244 36 393 0 133 -1 139
-25 162 -31 32 -78 33 -109 2z"/>
<path d="M3705 2295 c-24 -23 -25 -31 -25 -135 0 -104 1 -112 25 -135 15 -16
36 -25 55 -25 19 0 40 9 55 25 24 23 25 31 25 135 0 104 -1 112 -25 135 -15
16 -36 25 -55 25 -19 0 -40 -9 -55 -25z"/>
<path d="M184 1255 l-25 -25 3 -383 3 -383 37 -76 c45 -91 103 -147 196 -191
l67 -32 382 -3 383 -3 25 25 c33 33 33 79 0 111 l-24 25 -352 0 c-247 0 -364
4 -393 12 -55 16 -138 99 -154 154 -8 29 -12 146 -12 393 l0 352 -25 24 c-32
33 -78 33 -111 0z"/>
<path d="M4825 1255 l-25 -24 0 -352 c0 -247 -4 -364 -12 -393 -16 -55 -99
-138 -154 -154 -29 -8 -146 -12 -393 -12 l-352 0 -24 -25 c-33 -32 -33 -78 0
-111 l25 -25 383 3 382 3 67 32 c93 44 151 100 196 191 l37 76 3 383 3 383
-25 25 c-33 33 -79 33 -111 0z"/>
</g>
</svg>
