<?xml version="1.0" standalone="no"?>
<!DOCTYPE svg PUBLIC "-//W3C//DTD SVG 20010904//EN"
 "http://www.w3.org/TR/2001/REC-SVG-20010904/DTD/svg10.dtd">
<svg version="1.0" xmlns="http://www.w3.org/2000/svg"
 width="376.000000pt" height="338.000000pt" viewBox="0 0 376.000000 338.000000"
 preserveAspectRatio="xMidYMid meet">

<g transform="translate(0.000000,338.000000) scale(0.100000,-0.100000)"
fill="#002B45" stroke="none">
<path d="M2896 3255 c-93 -33 -148 -104 -154 -200 -4 -56 -1 -70 22 -109 46
-79 56 -76 -205 -76 l-231 0 -29 -29 -29 -29 0 -236 c0 -161 -3 -236 -11 -236
-6 0 -31 12 -56 27 -108 63 -258 10 -307 -109 -21 -50 -20 -143 3 -193 25 -55
81 -101 146 -120 64 -19 101 -14 162 21 23 13 46 24 52 24 7 0 11 -27 11 -71
0 -85 41 -214 70 -222 10 -3 37 6 59 19 59 33 105 44 144 33 74 -20 257 -208
257 -265 0 -31 29 -32 58 -1 32 34 29 88 -8 154 -35 61 -36 74 -11 129 48 105
190 112 251 12 27 -45 25 -91 -7 -145 -35 -61 -37 -127 -4 -154 21 -18 42 -19
283 -19 l259 0 24 24 c34 34 37 63 33 319 l-3 229 -29 25 c-25 21 -37 24 -73
20 -24 -2 -62 -17 -85 -32 -33 -22 -49 -26 -81 -22 -100 14 -155 117 -109 206
22 45 59 71 109 78 32 4 48 0 81 -22 23 -15 61 -30 85 -32 36 -4 48 -1 73 20
l29 25 3 241 c3 264 -2 296 -54 320 -16 7 -104 11 -254 11 -130 0 -230 4 -230
9 0 5 14 35 31 67 27 51 30 66 26 112 -10 97 -77 176 -172 201 -52 14 -81 13
-129 -4z"/>
<path d="M504 2860 c-12 -4 -31 -21 -43 -36 -20 -26 -21 -37 -21 -260 0 -153
-4 -234 -10 -234 -6 0 -28 12 -50 26 -125 83 -301 -3 -331 -161 -35 -184 163
-325 331 -235 l55 30 5 -237 c3 -131 9 -246 14 -256 22 -45 43 -47 443 -47
l379 0 12 46 c10 38 30 64 110 144 132 132 163 140 287 77 64 -32 77 -25 105
57 11 35 30 72 40 81 37 34 22 183 -20 205 -34 18 -90 11 -150 -21 -53 -27
-62 -29 -99 -19 -129 34 -149 204 -31 265 43 22 86 18 137 -12 60 -35 123 -37
155 -5 23 22 23 28 26 265 2 215 1 246 -15 277 -29 57 -42 60 -310 60 -241 0
-242 0 -270 -24 -38 -33 -38 -98 0 -155 98 -148 -104 -300 -221 -167 -46 52
-49 94 -12 162 35 66 39 121 11 155 -19 24 -20 24 -263 26 -133 1 -253 -2
-264 -7z"/>
<path d="M1905 1802 c-6 -4 -22 -43 -36 -87 l-25 -79 -57 -25 -58 -24 -78 41
-79 42 -60 -50 c-56 -46 -142 -144 -142 -159 0 -3 18 -39 39 -79 l39 -73 -23
-57 -22 -57 -85 -28 -85 -28 -7 -46 c-7 -56 -6 -177 3 -216 5 -26 15 -32 89
-55 l83 -27 24 -59 24 -60 -39 -72 c-22 -39 -40 -76 -40 -81 0 -14 101 -123
154 -167 l47 -38 78 41 78 41 59 -24 59 -24 26 -84 26 -83 63 -9 c34 -4 100
-5 145 -1 l82 7 25 81 25 82 58 28 58 28 79 -41 79 -42 32 25 c60 47 96 82
136 131 l40 50 -41 77 -42 77 25 58 25 59 77 25 c43 14 82 32 87 40 11 16 14
239 4 264 -4 9 -41 27 -89 42 l-83 26 -22 58 -21 57 40 81 40 80 -65 71 c-36
39 -82 84 -103 100 l-38 30 -77 -41 -78 -40 -59 23 -60 24 -25 80 c-14 44 -30
83 -37 87 -15 10 -259 10 -272 0z m252 -417 c75 -22 167 -88 213 -153 161
-224 63 -532 -198 -623 -89 -32 -218 -24 -303 19 -163 79 -258 258 -229 424
22 120 81 213 179 280 91 63 231 85 338 53z"/>
</g>
</svg>
