<?xml version="1.0" standalone="no"?>
<!DOCTYPE svg PUBLIC "-//W3C//DTD SVG 20010904//EN"
 "http://www.w3.org/TR/2001/REC-SVG-20010904/DTD/svg10.dtd">
<svg version="1.0" xmlns="http://www.w3.org/2000/svg"
 width="591.000000pt" height="646.000000pt" viewBox="0 0 591.000000 646.000000"
 preserveAspectRatio="xMidYMid meet">

<g transform="translate(0.000000,646.000000) scale(0.100000,-0.100000)"
fill="#000000" stroke="none">
<path fill="#E8B012" d="M4785 6395 c-14 -13 -25 -31 -25 -39 0 -9 80 -95 178 -193 431 -430
665 -879 758 -1458 22 -131 29 -436 15 -580 -76 -753 -468 -1411 -1116 -1872
-93 -67 -110 -83 -113 -108 -7 -73 56 -88 135 -34 251 172 473 375 649 594
390 488 605 1132 580 1740 -23 551 -213 1074 -553 1517 -138 181 -419 458
-464 458 -11 0 -31 -11 -44 -25z"/>
<path fill="#E8B012" d="M938 6327 c-306 -274 -571 -654 -717 -1032 -343 -886 -186 -1861 422
-2615 162 -201 507 -509 663 -592 41 -21 46 -22 72 -8 35 20 42 70 14 97 -10
10 -59 46 -109 81 -290 201 -577 508 -753 804 -227 381 -343 776 -357 1208
-13 426 70 803 264 1192 148 296 376 589 627 806 48 41 59 57 59 81 0 41 -19
61 -58 61 -27 0 -50 -15 -127 -83z"/>
<path fill="#E8B012" d="M1504 6115 c-45 -20 -210 -163 -315 -273 -311 -327 -509 -720 -586
-1167 -22 -126 -25 -518 -5 -640 96 -588 400 -1090 877 -1450 135 -103 270
-185 302 -185 35 0 59 15 72 48 17 41 0 76 -51 108 -217 138 -330 226 -458
354 -171 172 -300 354 -404 571 -153 316 -213 625 -194 987 28 544 325 1105
773 1461 44 35 86 76 92 92 29 65 -35 123 -103 94z"/>
<path fill="#E8B012" d="M4312 6114 c-31 -21 -44 -58 -32 -88 5 -13 51 -58 103 -100 348 -279
605 -679 712 -1106 75 -299 75 -654 1 -949 -132 -519 -455 -959 -928 -1261
-131 -84 -153 -112 -127 -159 8 -14 27 -32 42 -39 35 -17 78 2 208 88 524 350
869 860 986 1458 25 126 27 156 27 387 0 231 -2 261 -27 387 -105 535 -412
1030 -840 1354 -63 47 -89 53 -125 28z"/>
<path fill="#E8B012" d="M1804 5733 c-65 -33 -226 -181 -318 -292 -266 -320 -406 -700 -406
-1101 0 -577 295 -1114 795 -1445 61 -40 120 -76 133 -80 46 -14 95 42 72 84
-5 11 -61 54 -123 95 -378 252 -621 601 -720 1036 -18 81 -21 126 -21 310 0
184 3 229 21 312 81 359 274 677 553 911 106 89 122 113 97 150 -20 31 -49 38
-83 20z"/>
<path fill="#E8B012" d="M4017 5738 c-9 -7 -19 -26 -23 -41 -6 -26 -1 -34 47 -75 362 -314
553 -630 621 -1027 17 -101 19 -148 15 -300 -7 -243 -45 -404 -146 -619 -130
-275 -398 -568 -654 -715 -64 -36 -80 -59 -71 -96 7 -28 31 -45 63 -45 56 0
297 178 442 327 232 237 378 495 452 803 73 298 59 634 -38 925 -31 92 -121
286 -168 360 -101 161 -260 340 -405 456 -74 59 -104 70 -135 47z"/>
<path fill="#E8B012" d="M2058 5318 c-130 -101 -281 -285 -356 -433 -240 -479 -142 -1056 244
-1440 111 -111 274 -225 320 -225 48 0 75 39 58 84 -3 8 -51 45 -105 81 -341
227 -531 593 -516 990 12 317 157 609 404 818 73 61 83 73 83 103 0 23 -7 38
-22 48 -34 24 -51 20 -110 -26z"/>
<path fill="#E8B012" d="M3716 5344 c-9 -8 -16 -30 -16 -48 0 -29 8 -40 56 -76 124 -97 269
-280 333 -423 78 -174 107 -324 98 -516 -9 -206 -67 -382 -182 -558 -71 -107
-222 -260 -325 -328 -127 -84 -140 -103 -104 -153 26 -37 63 -28 164 39 113
76 252 207 332 313 71 96 169 291 198 396 83 300 59 596 -70 867 -61 129 -133
234 -232 339 -138 146 -212 189 -252 148z"/>
<path fill="#E8B012" d="M2352 5060 c-54 -33 -167 -153 -221 -237 -58 -88 -104 -200 -126
-304 -19 -91 -19 -268 0 -359 47 -224 195 -438 392 -570 41 -28 81 -50 89 -50
23 0 52 18 64 40 17 32 -5 65 -77 113 -168 112 -294 288 -340 475 -23 97 -21
266 5 364 43 159 131 292 280 420 48 41 55 75 22 108 -25 25 -46 25 -88 0z"/>
<path fill="#E8B012" d="M3447 5062 c-33 -36 -21 -60 81 -160 145 -145 217 -283 243 -469 37
-269 -104 -570 -341 -728 -80 -53 -92 -67 -92 -100 0 -97 116 -63 271 81 125
115 225 281 267 439 27 100 27 341 0 440 -49 183 -166 363 -309 477 -54 42
-94 49 -120 20z"/>
<path fill="#002B45" d="M2768 4731 c-247 -81 -368 -339 -265 -565 32 -69 106 -150 172 -187
l51 -28 -8 -113 c-12 -170 -54 -472 -94 -668 -175 -876 -522 -1622 -1052
-2263 -100 -122 -361 -386 -492 -500 -58 -50 -104 -95 -103 -99 2 -4 49 -62
104 -128 89 -106 104 -119 118 -107 117 96 284 253 420 394 l168 173 1119 0
1119 -1 65 -75 c110 -128 497 -494 523 -494 10 0 209 240 205 249 -2 4 -37 36
-78 71 -118 100 -332 313 -450 447 -657 746 -1079 1751 -1194 2838 -29 279
-30 264 2 277 99 43 195 142 235 240 30 76 29 211 -2 291 -34 85 -123 177
-219 224 -71 36 -82 38 -181 40 -82 2 -119 -1 -163 -16z m142 -1890 c0 -28 93
-348 145 -501 71 -206 166 -435 271 -648 52 -106 94 -194 94 -196 0 -1 -234
-3 -520 -2 -286 0 -520 2 -520 4 0 2 37 78 82 168 l81 164 249 0 248 0 0 130
0 130 -193 2 -194 3 49 130 c53 140 144 433 173 558 17 72 35 101 35 58z m753
-1729 c42 -64 94 -138 113 -164 l36 -48 -906 0 c-498 0 -906 3 -906 6 0 3 35
56 78 117 42 62 91 133 107 159 l30 48 685 0 685 0 78 -118z"/>
</g>
</svg>
