<?xml version="1.0" standalone="no"?>
<!DOCTYPE svg PUBLIC "-//W3C//DTD SVG 20010904//EN"
 "http://www.w3.org/TR/2001/REC-SVG-20010904/DTD/svg10.dtd">
<svg version="1.0" xmlns="http://www.w3.org/2000/svg"
 width="2499.000000pt" height="487.000000pt" viewBox="0 0 2499.000000 487.000000"
 preserveAspectRatio="xMidYMid meet">

<g transform="translate(0.000000,487.000000) scale(0.100000,-0.100000)"
fill="#E8B012" stroke="none">
<path d="M4470 4448 c-161 -233 -295 -429 -297 -435 -4 -10 99 -13 493 -13
l499 0 435 435 435 435 -636 0 -636 0 -293 -422z"/>
<path d="M1758 3865 c-460 -66 -811 -242 -1034 -519 -158 -195 -240 -400 -264
-656 -33 -345 96 -638 385 -879 114 -95 211 -158 410 -267 292 -159 371 -220
396 -302 24 -81 -38 -165 -148 -199 -91 -28 -401 -25 -543 6 -165 35 -310 87
-456 161 -132 68 -135 69 -143 47 -5 -12 -86 -215 -181 -452 -95 -236 -174
-434 -176 -440 -5 -13 99 -82 202 -133 166 -83 439 -154 704 -183 150 -17 470
-17 590 0 405 55 729 195 958 415 112 107 172 189 238 321 83 168 115 304 121
521 5 136 2 187 -11 255 -44 215 -168 416 -358 576 -114 96 -200 152 -427 278
-237 131 -292 166 -353 223 -54 51 -66 87 -44 134 20 42 68 74 148 100 92 31
351 30 491 0 130 -29 258 -72 358 -122 44 -23 82 -40 83 -38 7 10 346 935 346
944 0 15 -176 93 -288 128 -208 65 -361 87 -662 91 -175 3 -273 0 -342 -10z"/>
<path d="M7970 3874 c-19 -2 -78 -9 -130 -15 -521 -58 -1006 -289 -1358 -647
-251 -255 -425 -570 -518 -938 -57 -226 -69 -329 -69 -609 0 -222 3 -263 23
-365 102 -503 367 -860 801 -1076 304 -151 665 -212 1103 -186 335 20 557 62
740 140 81 35 93 43 91 64 -23 281 -77 914 -79 916 -1 2 -44 -13 -95 -33 -207
-83 -358 -110 -619 -109 -214 1 -287 15 -430 85 -156 77 -276 225 -325 404
-22 80 -31 337 -16 447 39 274 146 502 314 670 122 122 254 195 447 245 129
34 371 42 546 19 137 -18 279 -53 373 -91 35 -14 64 -25 66 -23 3 4 286 900
288 913 4 23 -212 108 -358 140 -167 36 -273 47 -515 50 -135 2 -261 1 -280
-1z"/>
<path d="M14245 3873 c-146 -8 -343 -26 -440 -39 -120 -16 -336 -61 -348 -73
-6 -6 -717 -3714 -717 -3741 0 -6 204 -10 564 -10 l565 0 10 53 c6 28 63 327
126 662 63 336 117 621 120 634 6 24 7 24 105 18 227 -14 279 -86 315 -437 50
-499 80 -719 117 -852 l21 -78 599 0 598 0 -14 32 c-8 18 -27 62 -44 98 -47
103 -62 191 -122 735 -22 198 -47 398 -55 444 -33 171 -88 311 -159 404 -20
26 -36 51 -36 55 0 4 26 20 58 36 178 88 358 240 461 392 180 267 231 646 128
949 -49 143 -116 246 -232 360 -212 207 -513 319 -958 355 -114 9 -530 11
-662 3z m518 -838 c195 -41 311 -156 325 -320 15 -187 -105 -380 -290 -469
-126 -60 -170 -68 -410 -73 -202 -5 -218 -4 -218 12 0 10 36 203 80 430 44
227 80 415 80 418 0 19 345 21 433 2z"/>
<path d="M3551 3713 c-12 -65 -172 -905 -354 -1868 l-333 -1750 1250 -3 c687
-1 1251 -1 1252 1 5 4 184 933 184 951 0 14 -72 16 -695 16 -382 0 -695 1
-695 3 0 5 79 399 85 425 l5 22 620 0 619 0 7 38 c4 20 46 237 93 482 l87 445
-623 3 c-343 1 -623 5 -623 10 0 4 16 88 35 187 19 99 35 181 35 182 0 2 296
4 657 5 l657 3 97 483 96 482 -1217 0 -1217 0 -22 -117z"/>
<path d="M17579 3810 c-543 -49 -941 -342 -1084 -800 -77 -246 -71 -527 15
-730 99 -231 308 -393 590 -455 103 -22 341 -30 470 -16 126 15 299 50 413 85
l83 25 103 543 c57 299 106 549 109 556 3 9 -83 12 -412 12 -229 0 -416 -1
-416 -3 0 -2 -20 -104 -45 -227 -25 -123 -45 -230 -45 -237 0 -10 27 -13 119
-13 66 0 122 -3 124 -7 2 -5 -6 -55 -17 -112 -24 -120 -24 -119 -128 -120
-275 -3 -416 163 -378 445 22 171 80 295 182 389 113 105 246 149 453 149 139
0 233 -16 358 -61 38 -13 70 -23 72 -21 2 2 41 113 89 248 62 179 82 246 73
252 -64 42 -251 84 -432 98 -142 11 -169 11 -296 0z"/>
<path d="M22720 3806 c-426 -75 -750 -327 -892 -693 -116 -300 -113 -632 8
-882 39 -80 60 -109 138 -186 105 -106 191 -159 331 -204 136 -44 232 -55 434
-48 195 7 324 28 416 71 48 22 55 28 51 48 -3 13 -13 120 -22 238 -9 118 -20
218 -23 222 -3 4 -45 -6 -93 -23 -151 -52 -357 -55 -483 -8 -80 30 -154 103
-185 184 -20 51 -24 78 -24 180 0 194 52 334 169 451 104 105 226 149 410 148
116 -1 192 -13 288 -46 32 -11 59 -18 61 -17 6 9 146 465 146 476 0 19 -53 42
-159 70 -85 23 -120 26 -296 29 -135 2 -224 -1 -275 -10z"/>
<path d="M9456 3783 c-27 -92 -559 -2446 -572 -2532 -15 -99 -16 -128 -5 -220
25 -221 111 -399 271 -562 231 -235 544 -369 1020 -436 177 -25 671 -25 850 0
373 52 691 165 934 330 189 128 376 344 472 544 l35 73 -11 117 c-68 715 -274
1406 -558 1867 -70 114 -135 203 -138 191 -2 -6 -80 -343 -173 -750 -94 -407
-181 -779 -195 -826 -84 -290 -213 -477 -392 -571 -89 -47 -166 -67 -284 -74
-247 -16 -428 70 -491 235 -31 79 -37 245 -15 377 10 55 125 572 257 1149 132
578 243 1062 246 1078 l6 27 -626 0 c-587 0 -626 -1 -631 -17z"/>
<path d="M18471 2833 c-100 -533 -185 -978 -188 -991 l-5 -22 663 2 664 3 47
240 c26 132 47 246 47 253 1 9 -78 12 -364 12 -351 0 -365 1 -365 19 0 10 9
63 20 116 11 53 20 99 20 101 0 2 148 4 329 4 l328 0 49 253 49 252 -327 3
c-252 2 -328 5 -328 15 0 6 7 51 16 100 l16 87 349 0 349 0 5 23 c6 27 95 486
95 492 0 3 -289 5 -643 5 l-643 0 -183 -967z"/>
<path d="M20181 3748 c-20 -96 -361 -1912 -361 -1920 0 -4 123 -8 274 -8 l275
0 10 53 c25 121 132 695 157 844 15 90 29 161 31 159 2 -2 31 -95 63 -207 33
-112 104 -348 158 -524 l99 -320 294 -3 294 -2 184 977 c101 538 186 984 188
991 4 9 -55 12 -276 12 -155 0 -281 -3 -281 -6 0 -3 -29 -159 -64 -347 -36
-188 -72 -394 -81 -457 -9 -63 -19 -122 -22 -130 -3 -8 -18 35 -34 95 -25 95
-170 587 -230 781 l-20 64 -324 0 -324 0 -10 -52z"/>
<path d="M23692 3743 c-65 -336 -362 -1907 -362 -1914 0 -5 276 -9 659 -9 620
0 660 1 665 18 3 9 24 114 46 232 23 118 44 225 47 238 l5 22 -364 0 c-201 0
-367 2 -370 5 -4 5 17 126 37 213 l5 22 328 0 328 0 47 248 c26 136 47 250 47
255 0 4 -147 7 -326 7 l-327 0 7 53 c4 28 12 73 17 100 l11 47 348 0 349 0 10
53 c6 28 27 135 46 237 19 102 38 195 40 208 l5 22 -644 0 -643 0 -11 -57z"/>
<path d="M16599 1550 c-47 -25 -86 -72 -98 -118 -39 -150 -281 -1233 -281
-1255 0 -61 55 -134 122 -162 34 -13 449 -15 4035 -15 2784 0 4010 3 4036 11
50 13 113 77 126 126 39 154 281 1234 281 1255 0 61 -54 137 -117 164 -27 12
-654 14 -4050 14 -3941 -1 -4019 -1 -4054 -20z m2805 -422 c-4 -7 -28 -39 -52
-70 l-45 -58 -58 0 c-33 0 -59 4 -59 9 0 5 7 26 16 47 9 22 20 49 25 62 8 20
15 22 94 22 66 0 84 -3 79 -12z m2996 6 c0 -3 -23 -35 -51 -70 l-51 -64 -60 0
c-53 0 -59 2 -53 18 4 9 16 41 27 70 l19 52 85 0 c46 0 84 -3 84 -6z m-3589
-30 c40 -6 49 -25 49 -101 0 -29 -3 -34 -17 -28 -41 16 -132 27 -167 21 -47
-9 -86 -46 -86 -82 0 -30 45 -78 150 -159 35 -27 79 -70 98 -95 32 -41 34 -48
30 -107 -3 -51 -9 -69 -34 -100 -44 -54 -118 -82 -218 -83 -94 0 -206 18 -211
34 -2 6 -6 37 -9 68 l-6 57 57 -20 c70 -24 166 -29 210 -11 18 8 36 26 43 43
18 43 -8 79 -126 175 -159 131 -194 233 -111 322 65 70 176 91 348 66z m2649
-13 c0 -10 -3 -33 -6 -50 l-6 -31 -74 0 -74 0 0 50 0 50 80 0 c72 0 80 -2 80
-19z m316 -106 l-7 -65 71 0 70 0 0 -55 0 -55 -69 0 -68 0 -7 -52 c-3 -29 -6
-97 -6 -150 0 -89 2 -98 22 -112 17 -12 35 -14 72 -10 l49 7 -7 -39 c-12 -65
-15 -71 -48 -78 -48 -10 -142 -7 -176 5 -56 19 -67 49 -66 179 1 63 5 145 9
183 l6 67 -40 0 c-45 0 -49 9 -35 79 6 28 10 31 45 31 l38 0 3 48 3 47 65 17
c36 9 69 16 74 17 5 1 6 -28 2 -64z m-2400 -70 c49 -14 91 -46 119 -88 21 -32
36 -114 29 -153 l-6 -34 -198 0 -199 0 6 -37 c15 -111 127 -159 279 -119 34 9
64 16 66 16 3 0 0 -25 -5 -55 -13 -69 -17 -70 -187 -70 -112 0 -130 3 -170 24
-104 54 -135 109 -135 236 0 78 4 97 28 147 50 101 128 146 258 147 36 1 88
-6 115 -14z m657 0 c13 -6 17 -19 17 -62 0 -55 0 -55 -27 -49 -16 3 -55 8 -88
12 -51 5 -67 2 -105 -18 -59 -31 -83 -74 -84 -152 -2 -117 58 -172 174 -162
36 3 76 9 89 12 24 7 24 7 17 -47 -4 -30 -11 -58 -16 -63 -5 -5 -54 -11 -108
-14 -77 -3 -111 -1 -152 13 -103 34 -160 125 -160 255 0 139 69 242 190 281
29 10 227 5 253 -6z m1167 -49 l0 -64 -42 5 c-54 5 -105 -20 -130 -63 -21 -36
-38 -161 -38 -281 l0 -83 -76 0 -77 0 6 98 c4 53 10 175 13 270 l7 172 75 0
74 0 -7 -37 -7 -38 34 31 c47 45 67 53 121 54 l47 0 0 -64z m1169 49 c61 -21
99 -51 121 -96 23 -45 35 -116 26 -153 l-6 -26 -195 0 -195 0 0 -34 c0 -43 36
-96 80 -118 44 -22 123 -23 202 -2 33 8 62 14 63 12 4 -4 -14 -100 -19 -106
-12 -11 -90 -22 -167 -22 -149 0 -245 45 -290 137 -19 39 -24 64 -23 128 1
145 71 248 194 286 43 13 166 10 209 -6z m-2053 -26 c-3 -17 -9 -99 -12 -183
l-7 -151 26 -30 c23 -27 31 -30 85 -30 51 0 65 4 87 25 44 40 56 83 65 234 5
77 10 147 10 154 0 8 22 12 76 12 l77 0 -6 -77 c-4 -43 -10 -165 -13 -270 l-7
-193 -74 0 -73 0 0 40 0 41 -33 -34 c-76 -75 -256 -78 -334 -5 -40 38 -44 77
-31 296 l12 202 79 0 80 0 -7 -31z m1131 -61 c-4 -51 -10 -173 -13 -270 l-7
-178 -80 0 -80 0 6 73 c4 39 10 161 14 270 l6 197 80 0 80 0 -6 -92z"/>
<path d="M19197 821 c-32 -20 -51 -45 -61 -78 l-7 -23 125 0 c69 0 126 3 126
8 0 36 -25 84 -50 97 -39 20 -99 19 -133 -4z"/>
<path d="M22205 830 c-27 -11 -61 -49 -74 -82 l-11 -28 125 0 c119 0 125 1
125 20 0 34 -29 80 -56 90 -30 12 -81 12 -109 0z"/>
</g>
</svg>