<?xml version="1.0" standalone="no"?>
<!DOCTYPE svg PUBLIC "-//W3C//DTD SVG 20010904//EN"
 "http://www.w3.org/TR/2001/REC-SVG-20010904/DTD/svg10.dtd">
<svg version="1.0" xmlns="http://www.w3.org/2000/svg"
 width="1356.000000pt" height="599.000000pt" viewBox="0 0 1356.000000 599.000000"
 preserveAspectRatio="xMidYMid meet">

<g transform="translate(0.000000,599.000000) scale(0.100000,-0.100000)"
fill="#E8B012" stroke="none">
<path d="M11 5943 c5 -27 211 -1245 459 -2708 247 -1463 452 -2671 455 -2684
6 -21 10 -23 48 -17 64 10 347 107 482 165 579 250 1107 675 1473 1187 335
470 544 1004 629 1604 25 179 25 702 0 880 -50 354 -153 719 -285 1009 -18 38
-21 41 -30 25 -28 -53 -603 -1330 -658 -1461 -103 -248 -231 -610 -302 -853
l-19 -65 -7 185 c-20 519 -41 752 -171 1858 -58 490 -105 899 -105 907 0 13
-119 15 -989 15 l-988 0 8 -47z"/>
<path d="M6125 5978 c-2 -7 -173 -929 -380 -2048 -206 -1119 -378 -2047 -381
-2063 l-6 -27 1004 0 1003 0 379 2058 c209 1131 381 2065 384 2075 4 16 -48
17 -997 17 -793 0 -1002 -3 -1006 -12z"/>
<path d="M9040 5982 c0 -5 -169 -924 -375 -2043 -206 -1119 -378 -2049 -381
-2066 l-6 -33 989 0 990 0 33 185 33 185 492 0 c509 0 662 7 900 41 576 82
1033 297 1356 636 268 283 425 643 470 1082 17 166 7 495 -21 641 -158 853
-831 1299 -2064 1370 -213 12 -2416 14 -2416 2z m2070 -1432 c242 -30 380
-101 441 -228 28 -58 38 -197 19 -281 -60 -271 -293 -393 -778 -408 l-203 -6
6 24 c3 13 41 218 85 454 45 237 83 436 85 443 6 15 223 17 345 2z"/>
<path d="M3911 1668 c-51 -25 -98 -86 -107 -137 -3 -20 -71 -319 -151 -666
-80 -346 -146 -647 -145 -667 2 -76 65 -157 140 -178 26 -8 1313 -10 4352 -8
l4315 3 37 25 c45 30 86 91 94 139 3 20 71 319 151 666 110 478 144 640 140
674 -6 57 -50 118 -106 148 l-44 23 -4316 0 -4316 0 -44 -22z m2997 -416 c-1
-4 -23 -35 -47 -70 l-45 -62 -58 0 c-32 0 -58 3 -58 8 0 8 39 112 46 124 7 10
167 10 162 0z m956 -4 c-4 -7 -27 -39 -51 -70 l-44 -58 -55 0 c-30 0 -54 3
-54 8 0 4 10 35 22 70 l22 62 83 0 c65 0 82 -3 77 -12z m-1436 -69 l-3 -61
-117 1 -117 2 -6 -43 c-3 -24 -9 -171 -13 -328 l-7 -285 -89 -3 -89 -3 6 108
c4 59 10 209 14 332 l6 224 -123 -8 -123 -7 6 39 c4 21 7 50 7 66 l0 27 325 0
326 0 -3 -61z m899 4 c-3 -32 -12 -205 -18 -385 l-13 -328 -83 0 -84 0 6 68
c9 109 25 478 25 595 l0 107 86 0 87 0 -6 -57z m1781 -145 c109 -40 165 -131
166 -264 0 -72 -4 -89 -32 -147 -41 -83 -87 -122 -176 -149 -132 -40 -279 -8
-355 78 -98 112 -93 312 12 416 90 91 246 117 385 66z m698 21 c32 -8 54 -23
76 -49 l31 -37 37 37 c45 45 110 65 186 57 66 -7 112 -32 137 -75 18 -30 19
-48 12 -272 l-8 -240 -84 0 c-67 0 -84 3 -80 13 3 8 8 99 12 203 7 185 7 190
-15 217 -18 22 -29 27 -66 27 -37 0 -51 -6 -74 -28 -41 -41 -50 -87 -57 -269
l-6 -163 -81 0 -81 0 6 97 c4 54 7 147 8 206 1 102 0 109 -24 132 -45 46 -128
25 -159 -40 -20 -42 -36 -172 -36 -302 l0 -93 -81 0 -82 0 7 148 c3 81 9 209
12 285 l7 137 73 0 74 0 0 -38 0 -39 39 37 c57 54 130 71 217 49z m-2913 -19
c87 -25 147 -114 147 -218 l0 -62 -207 -2 -208 -3 -3 -30 c-1 -17 8 -50 20
-75 42 -83 135 -108 277 -75 35 9 66 13 68 11 3 -2 1 -28 -4 -58 l-8 -53 -65
-11 c-246 -44 -404 29 -441 204 -29 142 34 297 143 353 76 39 185 46 281 19z
m982 -8 c84 -43 125 -112 125 -212 l0 -60 -210 0 -210 0 0 -33 c0 -49 39 -118
80 -142 43 -25 146 -26 233 -2 l59 16 -7 -52 c-11 -81 -13 -82 -188 -82 -173
0 -202 9 -269 83 -48 53 -63 101 -63 202 1 150 65 248 189 292 69 25 204 20
261 -10z m640 19 c28 -6 30 -10 38 -65 5 -32 6 -60 4 -63 -3 -2 -24 1 -47 7
-23 6 -66 11 -96 11 -114 0 -174 -64 -174 -187 0 -131 50 -179 180 -170 41 2
85 8 98 12 23 7 23 6 17 -42 -4 -27 -11 -57 -16 -66 -18 -34 -230 -38 -300 -4
-96 45 -142 128 -143 256 -2 163 66 272 194 311 30 9 203 9 245 0z"/>
<path d="M8914 940 c-100 -31 -146 -205 -81 -302 29 -43 61 -58 122 -58 102 0
154 66 155 195 0 76 -19 121 -62 149 -30 20 -95 27 -134 16z"/>
<path d="M6702 941 c-35 -22 -72 -75 -72 -103 0 -16 13 -18 131 -18 l132 0 -6
42 c-8 58 -42 90 -104 95 -36 3 -56 -1 -81 -16z"/>
<path d="M7654 941 c-28 -17 -64 -73 -64 -100 0 -7 42 -11 130 -11 120 0 130
1 130 19 0 38 -23 82 -51 96 -39 21 -108 19 -145 -4z"/>
</g>
</svg>
