<?xml version="1.0" encoding="iso-8859-1"?>
<!-- Generator: Adobe Illustrator 16.0.0, SVG Export Plug-In . SVG Version: 6.00 Build 0)  -->
<!DOCTYPE svg PUBLIC "-//W3C//DTD SVG 1.1//EN" "http://www.w3.org/Graphics/SVG/1.1/DTD/svg11.dtd">
<svg version="1.1" id="Capa_1" xmlns="http://www.w3.org/2000/svg" xmlns:xlink="http://www.w3.org/1999/xlink" x="0px" y="0px"
	 width="79.536px" height="79.536px" viewBox="0 0 79.536 79.536" style="enable-background:new 0 0 79.536 79.536;"
	 xml:space="preserve">
<g>
	<path style="fill:#010002;" d="M48.97,35.923h-7.768V27.6c0.632-0.456,1.077-1.173,1.077-2.009c0-1.38-1.139-2.509-2.517-2.509
		c-1.396,0-2.514,1.128-2.514,2.509c0,0.847,0.44,1.553,1.077,2.02v8.313h-7.762c-1.284,0-2.323,1.033-2.323,2.322v38.97
		c-0.005,1.274,1.033,2.32,2.323,2.32H48.98c1.284,0,2.32-1.046,2.32-2.32V38.24C51.3,36.964,50.254,35.923,48.97,35.923z
		 M47.934,56.825c0,1.273-1.046,2.324-2.319,2.324H33.919c-1.289,0-2.322-1.046-2.322-2.324V43.071c0-1.284,1.028-2.322,2.322-2.322
		h11.695c1.269,0,2.319,1.033,2.319,2.322V56.825z M65.405,25.642c0,0.774-0.631,1.432-1.418,1.432
		c-0.782,0-1.419-0.652-1.419-1.432c-0.021-12.604-10.212-22.784-22.8-22.804C27.18,2.858,16.99,13.039,16.964,25.642
		c0,0.774-0.631,1.432-1.421,1.432c-0.779-0.005-1.411-0.658-1.411-1.432C14.131,11.485,25.611,0,39.768,0
		C53.925,0,65.405,11.485,65.405,25.642z M58.047,25.642c0,0.774-0.632,1.432-1.414,1.432c-0.787,0-1.424-0.652-1.424-1.432
		c-0.021-8.542-6.902-15.42-15.441-15.441c-8.531,0.021-15.436,6.899-15.446,15.441c0,0.774-0.624,1.432-1.421,1.432
		c-0.779,0-1.414-0.652-1.414-1.432c0-10.095,8.182-18.266,18.276-18.299C49.871,7.376,58.047,15.547,58.047,25.642z M51.637,25.642
		c0,0.774-0.632,1.432-1.425,1.432c-0.776,0-1.413-0.652-1.413-1.432c-0.011-4.984-4.044-9.02-9.031-9.041
		c-4.979,0.021-9.02,4.057-9.036,9.041c0,0.774-0.629,1.432-1.416,1.432c-0.785,0-1.419-0.652-1.419-1.432
		c0-6.563,5.318-11.866,11.866-11.866C46.308,13.776,51.622,19.079,51.637,25.642z"/>
</g>
<g>
</g>
<g>
</g>
<g>
</g>
<g>
</g>
<g>
</g>
<g>
</g>
<g>
</g>
<g>
</g>
<g>
</g>
<g>
</g>
<g>
</g>
<g>
</g>
<g>
</g>
<g>
</g>
<g>
</g>
</svg>
