<svg id="svg" version="1.1" xmlns="http://www.w3.org/2000/svg" xmlns:xlink="http://www.w3.org/1999/xlink" width="400" height="400" viewBox="0, 0, 400,400">
    <g id="svgg">
        <path id="path0" d="M76.603 27.735 C 74.660 28.787,67.600 35.726,67.600 36.585 C 67.600 36.923,67.465 37.201,67.300 37.203 C 66.727 37.209,66.000 39.370,66.000 41.068 C 66.000 42.939,76.932 54.797,78.662 54.802 C 79.068 54.803,80.840 56.255,82.600 58.028 C 86.774 62.234,88.063 62.076,93.887 56.646 C 100.820 50.182,101.376 47.800,97.000 43.308 C 95.350 41.615,94.000 40.088,94.000 39.915 C 94.000 39.243,93.777 38.939,91.938 37.100 C 90.893 36.055,90.106 35.200,90.188 35.200 C 90.271 35.200,88.430 33.310,86.097 31.000 C 81.302 26.251,80.105 25.840,76.603 27.735 M130.400 47.474 C 130.400 47.624,130.780 48.532,131.244 49.491 C 132.151 51.364,131.721 54.659,130.182 57.636 C 129.324 59.294,129.451 59.600,131.000 59.600 C 131.770 59.600,132.400 59.780,132.400 60.000 C 132.400 60.548,153.984 60.538,155.428 59.989 C 156.471 59.593,206.048 59.979,238.270 60.635 L 251.139 60.897 252.368 58.464 C 253.646 55.931,256.000 50.221,256.000 49.652 C 256.000 49.472,244.885 49.207,231.300 49.064 C 179.984 48.521,170.800 48.319,170.800 47.738 C 170.800 47.295,167.250 47.200,150.600 47.200 C 139.490 47.200,130.400 47.323,130.400 47.474 M96.659 91.074 C 95.393 92.340,90.071 93.093,88.374 92.247 C 87.661 91.891,86.925 91.600,86.739 91.600 C 86.118 91.600,86.317 131.483,86.938 131.721 C 87.379 131.890,87.524 136.840,87.738 158.864 C 88.109 197.233,88.477 217.200,88.812 217.200 C 89.296 217.200,92.992 215.610,98.153 213.181 L 100.105 212.262 99.844 207.631 C 99.700 205.084,99.410 185.720,99.200 164.600 C 98.990 143.480,98.702 124.400,98.561 122.200 C 98.354 118.965,98.431 117.899,98.963 116.625 C 99.714 114.831,99.905 94.236,99.176 93.785 C 98.969 93.657,98.800 92.933,98.800 92.176 C 98.800 90.831,97.548 90.186,96.659 91.074 M230.000 232.437 C 227.064 234.483,224.821 235.888,221.400 237.823 C 220.960 238.071,219.693 238.816,218.585 239.477 C 215.804 241.136,207.342 245.226,203.000 247.009 C 197.729 249.174,198.000 248.605,198.000 257.540 L 198.000 265.113 199.008 265.366 C 199.563 265.505,200.328 265.462,200.708 265.269 C 201.386 264.926,203.839 264.406,208.573 263.603 C 213.980 262.685,224.906 263.277,230.800 264.807 C 231.790 265.064,233.050 265.303,233.600 265.337 L 234.600 265.400 234.704 247.700 C 234.825 227.148,235.314 228.733,230.000 232.437 M164.000 321.200 C 163.670 321.413,161.375 321.591,158.900 321.594 C 156.171 321.598,154.400 321.757,154.400 322.000 C 154.400 322.240,152.800 322.400,150.400 322.400 C 148.000 322.400,146.400 322.560,146.400 322.800 C 146.400 323.035,145.000 323.200,143.000 323.200 C 141.000 323.200,139.600 323.365,139.600 323.600 C 139.600 323.835,138.200 324.000,136.200 324.000 C 134.330 324.000,132.800 324.157,132.800 324.349 C 132.800 324.540,131.405 324.799,129.700 324.924 C 125.907 325.201,124.109 325.425,121.000 326.005 C 119.680 326.251,117.790 326.548,116.800 326.665 C 115.810 326.782,114.829 327.040,114.620 327.239 C 114.411 327.437,113.592 327.600,112.800 327.600 C 112.008 327.600,111.189 327.771,110.979 327.981 C 110.770 328.190,109.924 328.407,109.099 328.463 C 108.275 328.518,107.600 328.707,107.600 328.882 C 107.600 329.057,106.880 329.200,106.000 329.200 C 105.120 329.200,104.400 329.380,104.400 329.600 C 104.400 329.820,104.008 330.000,103.528 330.000 C 102.378 330.000,99.034 331.065,97.105 332.047 C 96.723 332.241,96.038 332.400,95.582 332.400 C 95.126 332.400,94.864 332.580,95.000 332.800 C 95.140 333.026,94.812 333.200,94.247 333.200 C 93.697 333.200,93.136 333.380,93.000 333.600 C 92.864 333.820,92.443 334.000,92.065 334.000 C 91.686 334.000,91.117 334.360,90.800 334.800 C 90.483 335.240,89.988 335.600,89.701 335.600 C 88.599 335.600,85.600 339.120,85.600 340.413 C 85.600 341.134,85.434 341.544,85.200 341.400 C 84.943 341.241,84.800 342.655,84.800 345.353 C 84.800 347.848,84.630 349.658,84.381 349.812 C 83.871 350.127,83.937 358.000,84.449 358.000 C 84.642 358.000,84.800 359.519,84.800 361.376 C 84.800 363.233,84.980 364.864,85.200 365.000 C 85.420 365.136,85.600 365.714,85.600 366.284 C 85.600 367.012,86.256 367.967,87.800 369.486 C 89.010 370.677,90.000 371.549,90.000 371.424 C 90.000 371.299,90.855 371.624,91.900 372.147 C 96.602 374.497,97.347 374.792,99.216 375.040 C 100.307 375.185,101.200 375.460,101.200 375.652 C 101.200 375.843,101.740 376.000,102.400 376.000 C 103.060 376.000,103.600 376.180,103.600 376.400 C 103.600 376.620,104.320 376.800,105.200 376.800 C 106.080 376.800,106.800 376.980,106.800 377.200 C 106.800 377.420,107.419 377.600,108.176 377.600 C 108.933 377.600,109.664 377.780,109.800 378.000 C 109.936 378.220,110.811 378.400,111.744 378.400 C 112.677 378.400,113.611 378.570,113.820 378.779 C 114.029 378.987,114.965 379.202,115.900 379.257 C 116.835 379.312,117.600 379.501,117.600 379.678 C 117.600 379.855,118.489 380.000,119.576 380.000 C 120.663 380.000,121.664 380.180,121.800 380.400 C 121.936 380.620,123.027 380.800,124.224 380.800 C 125.421 380.800,126.400 380.980,126.400 381.200 C 126.400 381.425,127.525 381.600,128.976 381.600 C 130.393 381.600,131.664 381.780,131.800 382.000 C 131.936 382.220,133.196 382.400,134.600 382.400 C 136.004 382.400,137.264 382.580,137.400 382.800 C 137.536 383.020,139.066 383.200,140.800 383.200 C 142.534 383.200,144.064 383.380,144.200 383.600 C 144.337 383.821,146.137 384.000,148.224 384.000 C 150.317 384.000,152.000 384.168,152.000 384.376 C 152.000 384.737,155.119 384.950,167.400 385.426 C 170.480 385.545,173.171 385.813,173.380 386.022 C 173.593 386.234,177.226 386.400,181.656 386.400 C 186.417 386.400,189.650 386.557,189.797 386.795 C 190.105 387.294,239.216 387.008,250.800 386.440 C 255.310 386.218,261.835 385.923,265.300 385.783 C 268.765 385.643,271.600 385.375,271.600 385.188 C 271.600 385.001,273.625 384.750,276.100 384.629 C 286.406 384.127,288.800 383.928,288.800 383.573 C 288.800 383.368,290.229 383.200,291.976 383.200 C 293.723 383.200,295.264 383.020,295.400 382.800 C 295.536 382.580,296.796 382.400,298.200 382.400 C 299.604 382.400,300.864 382.220,301.000 382.000 C 301.136 381.780,302.497 381.600,304.024 381.600 C 305.608 381.600,306.800 381.428,306.800 381.200 C 306.800 380.980,307.790 380.800,309.000 380.800 C 310.210 380.800,311.200 380.620,311.200 380.400 C 311.200 380.180,312.179 380.000,313.376 380.000 C 314.573 380.000,315.664 379.820,315.800 379.600 C 315.936 379.380,316.937 379.200,318.024 379.200 C 319.111 379.200,320.000 379.020,320.000 378.800 C 320.000 378.580,320.709 378.400,321.576 378.400 C 322.443 378.400,323.264 378.220,323.400 378.000 C 323.536 377.780,324.256 377.600,325.000 377.600 C 325.744 377.600,326.464 377.420,326.600 377.200 C 326.736 376.980,327.366 376.800,328.000 376.800 C 328.634 376.800,329.264 376.620,329.400 376.400 C 329.536 376.180,330.267 376.000,331.024 376.000 C 331.781 376.000,332.400 375.840,332.400 375.645 C 332.400 375.450,333.206 375.170,334.191 375.022 C 335.176 374.875,336.086 374.584,336.214 374.377 C 336.342 374.170,336.766 374.000,337.156 374.000 C 338.546 374.000,346.380 369.427,346.405 368.600 C 346.412 368.380,346.770 367.750,347.200 367.200 C 347.719 366.537,347.985 365.568,347.991 364.324 C 347.996 363.292,348.167 362.344,348.371 362.218 C 348.898 361.892,348.938 345.333,348.413 345.008 C 348.186 344.868,348.000 343.770,348.000 342.568 C 348.000 340.414,346.517 337.200,345.523 337.200 C 345.319 337.200,345.281 336.992,345.438 336.738 C 345.609 336.462,345.549 336.385,345.288 336.546 C 345.048 336.694,344.398 336.362,343.844 335.808 C 343.290 335.253,342.558 334.800,342.218 334.800 C 341.878 334.800,341.599 334.665,341.597 334.500 C 341.593 334.141,339.656 333.200,338.920 333.200 C 338.634 333.200,338.400 333.020,338.400 332.800 C 338.400 332.580,337.950 332.400,337.400 332.400 C 336.850 332.400,336.400 332.220,336.400 332.000 C 336.400 331.780,335.860 331.600,335.200 331.600 C 334.540 331.600,334.000 331.420,334.000 331.200 C 334.000 330.980,333.471 330.800,332.824 330.800 C 332.177 330.800,331.536 330.620,331.400 330.400 C 331.264 330.180,330.634 330.000,330.000 330.000 C 329.366 330.000,328.748 329.840,328.627 329.644 C 328.506 329.449,327.821 329.187,327.104 329.063 C 326.387 328.939,325.170 328.727,324.400 328.592 C 323.630 328.456,322.640 328.190,322.200 328.000 C 321.760 327.810,320.770 327.544,320.000 327.409 C 319.230 327.274,317.700 326.998,316.600 326.796 C 309.545 325.499,307.753 325.241,303.700 324.941 C 301.885 324.807,300.400 324.540,300.400 324.349 C 300.400 324.157,298.971 324.000,297.224 324.000 C 295.477 324.000,293.936 323.820,293.800 323.600 C 293.664 323.380,292.123 323.200,290.376 323.200 C 288.525 323.200,287.200 323.033,287.200 322.800 C 287.200 322.560,285.600 322.400,283.200 322.400 C 280.800 322.400,279.200 322.240,279.200 322.000 C 279.200 321.755,277.267 321.600,274.200 321.600 C 271.133 321.600,269.200 321.445,269.200 321.200 C 269.200 320.571,265.212 320.703,264.968 321.340 C 264.853 321.638,265.319 323.663,266.002 325.840 C 270.450 340.030,269.736 341.427,256.200 345.007 C 249.916 346.669,241.568 347.822,228.800 348.791 C 210.820 350.156,185.109 347.851,173.000 343.789 C 163.357 340.553,162.902 338.992,167.479 324.837 C 168.006 323.207,168.344 321.632,168.231 321.337 C 167.990 320.707,164.916 320.608,164.000 321.200 " stroke="none" fill="#66ac6b" fill-rule="evenodd"></path>
        <path id="path1" d="M241.200 10.900 C 241.200 11.253,240.601 11.359,239.161 11.259 C 238.014 11.179,236.929 11.311,236.681 11.559 C 236.439 11.801,235.646 12.000,234.920 12.000 C 234.194 12.000,233.600 12.191,233.600 12.424 C 233.600 12.657,233.808 12.719,234.062 12.562 C 234.333 12.394,234.416 12.451,234.262 12.700 C 234.110 12.946,233.330 13.034,232.404 12.910 C 231.356 12.769,230.579 12.886,230.142 13.248 C 229.776 13.552,229.190 13.824,228.839 13.854 C 227.711 13.949,226.400 14.483,226.400 14.847 C 226.400 15.041,226.265 15.179,226.100 15.153 C 224.905 14.964,223.600 15.282,223.600 15.763 C 223.600 16.117,223.321 16.252,222.845 16.128 C 222.430 16.019,221.952 16.154,221.783 16.427 C 221.592 16.736,221.641 16.822,221.911 16.655 C 222.149 16.508,222.475 16.598,222.635 16.856 C 222.845 17.197,222.524 17.260,221.462 17.088 C 220.651 16.956,220.000 17.017,220.000 17.225 C 220.000 17.431,219.460 17.600,218.800 17.600 C 218.140 17.600,217.600 17.780,217.600 18.000 C 217.600 18.220,217.240 18.400,216.800 18.400 C 216.360 18.400,216.000 18.580,216.000 18.800 C 216.000 19.020,215.640 19.200,215.200 19.200 C 214.760 19.200,214.400 19.380,214.400 19.600 C 214.400 19.820,214.141 20.000,213.824 20.000 C 213.507 20.000,213.119 20.208,212.962 20.462 C 212.786 20.746,212.852 20.815,213.134 20.641 C 213.429 20.458,213.507 20.578,213.353 20.979 C 213.065 21.730,212.723 21.763,212.063 21.103 C 211.746 20.786,211.465 20.750,211.283 21.004 C 211.128 21.222,210.460 21.671,209.800 22.000 C 209.140 22.329,208.460 22.817,208.289 23.083 C 208.119 23.349,207.714 23.465,207.389 23.341 C 207.032 23.203,206.800 23.350,206.800 23.713 C 206.800 24.042,206.485 24.286,206.100 24.256 C 205.623 24.218,205.428 24.455,205.488 25.000 C 205.537 25.440,205.477 25.575,205.355 25.300 C 205.047 24.605,203.860 24.658,204.127 25.355 C 204.277 25.745,204.110 25.849,203.564 25.707 C 202.950 25.546,202.845 25.653,203.062 26.217 C 203.272 26.766,203.204 26.849,202.768 26.577 C 201.977 26.083,201.150 25.996,201.422 26.435 C 201.546 26.636,201.358 26.800,201.005 26.800 C 200.652 26.800,199.922 27.242,199.382 27.782 C 198.842 28.322,198.400 28.579,198.400 28.353 C 198.400 28.127,197.905 28.332,197.300 28.809 C 196.695 29.285,196.199 29.959,196.198 30.305 C 196.197 30.651,195.944 31.019,195.635 31.122 C 195.249 31.250,195.151 31.104,195.324 30.655 C 195.462 30.295,195.401 30.000,195.187 30.000 C 194.974 30.000,194.800 30.136,194.800 30.302 C 194.800 30.469,194.215 30.860,193.500 31.172 C 192.785 31.484,191.909 32.068,191.553 32.470 C 191.197 32.871,190.652 33.200,190.341 33.200 C 190.031 33.200,189.517 33.560,189.200 34.000 C 188.883 34.440,188.343 34.800,188.000 34.800 C 187.657 34.800,187.117 35.160,186.800 35.600 C 186.483 36.040,185.980 36.400,185.683 36.400 C 185.386 36.400,184.873 36.670,184.543 37.000 C 184.122 37.421,184.091 37.600,184.438 37.600 C 184.710 37.600,184.804 37.730,184.645 37.888 C 184.487 38.046,183.962 38.181,183.479 38.188 C 182.995 38.195,182.643 38.419,182.695 38.686 C 182.750 38.966,182.539 39.075,182.195 38.943 C 181.773 38.781,181.598 38.988,181.594 39.657 C 181.589 40.396,181.507 40.472,181.215 40.010 C 180.862 39.453,178.948 40.630,178.468 41.700 C 178.394 41.865,178.155 42.000,177.938 42.000 C 177.721 42.000,177.292 42.225,176.985 42.500 C 175.987 43.395,175.418 43.791,174.292 44.372 C 173.497 44.782,173.328 45.034,173.692 45.266 C 174.075 45.508,174.047 45.589,173.580 45.594 C 172.758 45.602,170.807 46.520,170.803 46.900 C 170.801 47.065,171.441 47.200,172.224 47.200 C 173.007 47.200,173.555 47.050,173.441 46.867 C 173.328 46.683,173.489 46.533,173.800 46.533 C 174.111 46.533,174.272 46.683,174.159 46.867 C 174.045 47.050,174.467 47.200,175.096 47.200 C 175.725 47.200,176.434 47.394,176.672 47.632 C 176.969 47.929,188.191 48.171,212.652 48.410 C 245.199 48.728,256.107 48.987,256.890 49.460 C 257.144 49.613,256.682 51.163,255.596 53.800 C 255.415 54.240,255.028 55.185,254.736 55.900 C 254.444 56.615,254.069 57.200,253.902 57.200 C 253.736 57.200,253.600 57.560,253.600 58.000 C 253.600 58.440,253.443 58.800,253.250 58.800 C 253.058 58.800,252.792 59.340,252.660 60.000 L 252.420 61.200 243.910 61.188 C 239.230 61.182,228.020 61.008,219.000 60.802 C 194.501 60.242,156.000 60.282,156.000 60.867 C 156.000 61.301,155.088 61.115,154.692 60.600 C 154.329 60.128,153.199 61.436,153.362 62.139 C 153.421 62.392,153.393 62.465,153.301 62.300 C 152.794 61.394,149.999 63.108,150.317 64.130 C 150.374 64.311,150.251 64.355,150.045 64.228 C 149.838 64.100,148.952 64.672,148.074 65.498 C 147.197 66.324,145.830 67.540,145.036 68.200 C 143.950 69.103,143.644 69.619,143.800 70.284 C 143.950 70.923,143.756 71.300,143.104 71.642 C 142.217 72.108,142.214 72.101,142.926 71.298 C 143.469 70.686,143.529 70.403,143.164 70.178 C 142.853 69.985,142.780 70.043,142.962 70.338 C 143.131 70.612,142.993 70.800,142.624 70.800 C 142.062 70.800,141.821 71.267,141.953 72.100 C 141.979 72.265,141.865 72.379,141.700 72.353 C 140.777 72.207,140.338 72.462,140.553 73.021 C 140.690 73.379,140.623 73.538,140.392 73.395 C 139.930 73.109,138.717 74.183,139.086 74.552 C 139.222 74.689,138.935 74.800,138.448 74.800 C 137.506 74.800,135.600 76.439,135.600 77.248 C 135.600 77.515,135.491 77.624,135.357 77.491 C 135.047 77.180,134.784 77.413,130.102 82.135 C 127.956 84.300,126.225 86.325,126.256 86.635 C 126.286 86.946,126.055 87.200,125.742 87.200 C 124.552 87.200,122.352 89.895,123.008 90.550 C 123.928 91.471,123.707 91.688,122.593 90.959 C 121.643 90.336,121.602 90.339,121.861 91.015 C 122.051 91.509,121.990 91.641,121.665 91.440 C 121.398 91.275,121.091 91.419,120.955 91.772 C 120.824 92.115,120.555 92.296,120.358 92.174 C 119.826 91.846,119.925 92.555,120.500 93.201 C 120.921 93.673,120.896 93.683,120.339 93.264 C 119.787 92.849,119.496 92.934,118.580 93.783 C 117.977 94.342,117.307 94.800,117.093 94.800 C 116.877 94.800,116.913 95.054,117.174 95.369 C 117.559 95.832,117.504 95.900,116.878 95.736 C 116.407 95.613,116.017 95.780,115.868 96.168 C 115.734 96.515,115.810 96.800,116.036 96.800 C 116.262 96.800,116.334 96.983,116.196 97.207 C 116.058 97.430,115.800 97.524,115.624 97.415 C 114.868 96.948,113.479 98.736,114.109 99.366 C 114.437 99.694,114.861 99.835,115.052 99.681 C 115.244 99.526,115.260 99.570,115.090 99.777 C 114.919 99.984,114.379 100.210,113.890 100.278 C 113.184 100.377,113.124 100.321,113.600 100.007 C 114.044 99.715,114.063 99.611,113.671 99.606 C 112.905 99.597,112.105 100.516,112.320 101.159 C 112.432 101.495,112.326 101.601,112.049 101.430 C 111.437 101.052,110.274 102.263,110.639 102.897 C 110.798 103.174,110.796 103.282,110.635 103.138 C 110.305 102.843,106.000 107.068,106.000 107.686 C 106.000 107.906,105.548 108.440,104.996 108.874 C 104.444 109.309,104.112 109.857,104.258 110.094 C 104.404 110.330,104.340 110.410,104.117 110.272 C 103.471 109.873,101.210 112.613,101.394 113.570 C 101.546 114.358,101.221 114.575,100.103 114.431 C 99.801 114.392,99.640 114.770,99.691 115.392 C 99.751 116.119,99.954 116.357,100.388 116.208 C 100.907 116.030,100.903 116.074,100.364 116.499 C 99.097 117.496,99.072 126.010,100.104 206.100 C 100.179 211.931,100.088 213.600,99.695 213.600 C 99.417 213.600,98.832 213.780,98.395 214.000 C 97.958 214.220,97.242 214.580,96.805 214.800 C 96.368 215.020,95.738 215.200,95.405 215.200 C 95.072 215.200,94.800 215.380,94.800 215.600 C 94.800 215.820,94.440 216.000,94.000 216.000 C 93.560 216.000,93.200 216.141,93.200 216.313 C 93.200 216.485,92.345 216.874,91.300 217.178 C 90.255 217.482,89.265 217.926,89.100 218.165 C 88.056 219.677,87.823 212.559,87.339 164.484 C 87.193 149.901,86.922 137.875,86.736 137.761 C 86.551 137.646,86.400 136.213,86.400 134.576 C 86.400 132.859,86.231 131.600,86.000 131.600 C 85.780 131.600,85.600 131.870,85.600 132.200 C 85.600 132.530,85.420 132.800,85.200 132.800 C 84.980 132.800,84.800 133.070,84.800 133.400 C 84.800 133.730,84.665 134.006,84.500 134.013 C 84.069 134.031,82.742 135.934,82.607 136.728 C 82.545 137.097,82.293 137.355,82.047 137.300 C 81.434 137.163,81.480 137.885,82.100 138.135 C 82.375 138.246,82.201 138.351,81.714 138.368 C 81.226 138.386,80.614 138.804,80.351 139.300 C 80.089 139.795,79.567 140.470,79.191 140.800 C 78.742 141.194,78.544 141.880,78.611 142.800 C 78.668 143.570,78.630 143.885,78.528 143.500 C 78.299 142.642,78.114 142.629,77.332 143.411 C 76.815 143.928,76.804 144.125,77.260 144.688 C 77.673 145.197,77.678 145.280,77.282 145.042 C 76.671 144.675,75.600 145.454,75.600 146.267 C 75.600 146.580,75.164 147.272,74.631 147.805 C 74.098 148.338,73.546 149.140,73.404 149.587 C 73.262 150.034,72.978 150.400,72.773 150.400 C 72.568 150.400,72.400 150.760,72.400 151.200 C 72.400 151.640,72.220 152.000,72.000 152.000 C 71.780 152.000,71.600 152.174,71.600 152.387 C 71.600 153.048,72.676 152.400,73.113 151.477 C 73.525 150.604,73.527 150.604,73.474 151.561 C 73.443 152.112,73.120 152.601,72.715 152.706 C 72.327 152.808,72.119 153.068,72.253 153.285 C 72.387 153.502,72.115 153.476,71.648 153.226 C 70.881 152.815,70.800 152.875,70.800 153.853 C 70.800 154.447,70.689 154.822,70.552 154.686 C 70.197 154.331,69.200 155.426,69.200 156.171 C 69.200 156.517,68.999 156.800,68.753 156.800 C 68.494 156.800,68.386 157.214,68.496 157.788 C 68.606 158.365,68.524 158.676,68.297 158.537 C 68.085 158.405,67.760 158.541,67.576 158.838 C 67.375 159.163,67.433 159.500,67.721 159.683 C 68.045 159.889,67.974 159.990,67.500 159.994 C 67.115 159.997,66.821 160.135,66.847 160.300 C 66.972 161.090,66.749 161.340,66.400 160.800 C 66.069 160.287,66.011 160.302,66.006 160.900 C 66.003 161.285,66.225 161.611,66.500 161.625 C 66.775 161.639,66.594 161.814,66.097 162.014 C 65.600 162.213,64.986 162.832,64.733 163.388 C 64.479 163.945,64.159 164.400,64.021 164.400 C 63.883 164.400,63.740 164.802,63.703 165.294 C 63.666 165.786,63.448 166.251,63.218 166.327 C 62.988 166.404,62.800 166.722,62.800 167.033 C 62.800 167.345,62.620 167.600,62.400 167.600 C 62.180 167.600,62.000 167.949,62.000 168.376 C 62.000 168.803,61.820 169.264,61.600 169.400 C 61.086 169.717,61.076 171.600,61.587 171.600 C 61.801 171.600,61.857 171.285,61.713 170.900 C 61.483 170.287,61.534 170.268,62.125 170.749 C 63.039 171.493,63.028 171.508,61.160 172.011 C 59.851 172.363,59.560 172.603,59.716 173.200 C 59.830 173.638,59.664 174.043,59.314 174.178 C 58.983 174.305,58.819 174.673,58.946 175.003 C 59.072 175.332,58.980 175.600,58.741 175.600 C 58.498 175.600,58.403 175.967,58.524 176.432 C 58.683 177.039,58.588 177.204,58.171 177.044 C 57.796 176.900,57.600 177.095,57.600 177.613 C 57.600 178.046,57.400 178.400,57.155 178.400 C 56.891 178.400,56.779 178.872,56.879 179.559 C 57.002 180.397,56.904 180.661,56.525 180.516 C 56.218 180.398,56.000 180.599,56.000 181.000 C 56.000 181.487,56.202 181.608,56.695 181.419 C 57.277 181.196,57.260 181.278,56.595 181.925 C 56.158 182.350,55.665 182.620,55.500 182.525 C 55.335 182.430,55.200 182.564,55.200 182.823 C 55.200 183.096,55.535 183.206,56.001 183.084 C 56.441 182.969,56.700 183.038,56.577 183.237 C 56.454 183.437,56.115 183.600,55.825 183.600 C 54.858 183.600,54.320 184.635,54.995 185.196 C 56.003 186.032,55.757 186.926,54.600 186.636 C 53.736 186.419,53.600 186.519,53.600 187.369 C 53.600 187.910,53.403 188.475,53.162 188.624 C 52.921 188.773,52.792 189.483,52.876 190.202 C 52.971 191.017,52.868 191.448,52.602 191.346 C 52.368 191.256,52.136 191.671,52.086 192.269 C 52.037 192.866,51.832 193.457,51.631 193.581 C 51.430 193.705,51.308 194.408,51.359 195.144 C 51.417 195.983,51.245 196.561,50.899 196.694 C 50.529 196.836,50.384 197.426,50.460 198.476 C 50.529 199.431,50.372 200.170,50.061 200.363 C 49.352 200.801,49.600 204.241,50.330 204.090 C 50.621 204.030,50.744 204.168,50.602 204.397 C 50.461 204.626,50.177 204.709,49.972 204.583 C 49.768 204.456,49.600 204.543,49.600 204.776 C 49.600 205.009,49.780 205.200,50.000 205.200 C 50.220 205.200,50.387 205.605,50.372 206.100 C 50.345 206.960,50.328 206.964,49.996 206.200 C 49.464 204.980,49.608 211.581,50.141 212.888 C 50.385 213.487,50.858 214.051,51.193 214.142 C 51.660 214.269,51.639 214.318,51.100 214.354 C 50.171 214.415,50.213 215.249,51.200 216.308 C 51.640 216.780,52.006 217.489,52.013 217.883 C 52.029 218.776,52.928 220.000,53.568 220.000 C 53.831 220.000,53.936 220.180,53.800 220.400 C 53.664 220.620,53.743 220.800,53.976 220.800 C 54.209 220.800,54.400 220.659,54.400 220.486 C 54.400 220.313,54.747 220.171,55.171 220.171 C 55.594 220.171,55.854 220.313,55.747 220.486 C 55.640 220.659,55.833 220.800,56.176 220.800 C 56.519 220.800,56.800 220.947,56.800 221.126 C 56.800 221.535,59.881 223.200,60.638 223.200 C 60.947 223.200,61.200 223.380,61.200 223.600 C 61.200 223.820,61.999 224.000,62.976 224.000 C 63.953 224.000,64.864 224.180,65.000 224.400 C 65.322 224.922,71.478 224.922,71.800 224.400 C 71.936 224.180,73.106 224.000,74.400 224.000 C 75.694 224.000,76.864 223.820,77.000 223.600 C 77.136 223.380,77.856 223.200,78.600 223.200 C 79.344 223.200,80.064 223.020,80.200 222.800 C 80.336 222.580,80.966 222.400,81.600 222.400 C 82.234 222.400,82.864 222.220,83.000 222.000 C 83.136 221.780,83.676 221.600,84.200 221.600 C 84.724 221.600,85.264 221.420,85.400 221.200 C 85.536 220.980,85.999 220.800,86.429 220.800 C 86.859 220.800,87.523 220.641,87.905 220.447 C 88.555 220.116,89.353 219.779,91.800 218.800 C 92.350 218.580,93.205 218.235,93.700 218.033 C 96.319 216.966,109.019 210.639,109.133 210.345 C 109.207 210.155,109.597 210.000,110.000 210.000 C 110.403 210.000,110.793 209.865,110.867 209.700 C 111.034 209.324,113.164 208.025,114.100 207.729 C 114.485 207.607,114.800 207.348,114.800 207.153 C 114.800 206.959,114.993 206.800,115.228 206.800 C 115.463 206.800,116.441 206.260,117.400 205.600 C 118.359 204.940,119.254 204.400,119.389 204.400 C 119.523 204.400,120.020 204.040,120.492 203.600 C 120.964 203.160,121.587 202.800,121.875 202.800 C 122.164 202.800,122.400 202.620,122.400 202.400 C 122.400 202.180,122.636 202.000,122.925 202.000 C 123.213 202.000,123.836 201.640,124.308 201.200 C 124.780 200.760,125.256 200.400,125.365 200.400 C 125.708 200.400,135.793 193.450,135.933 193.117 C 136.007 192.943,136.282 192.800,136.545 192.800 C 136.808 192.800,137.283 192.440,137.600 192.000 C 137.917 191.560,138.369 191.200,138.604 191.200 C 138.840 191.200,139.828 190.480,140.800 189.600 C 141.772 188.720,142.734 188.000,142.937 188.000 C 143.140 188.000,143.597 187.676,143.953 187.281 C 144.309 186.886,145.230 186.127,146.000 185.594 C 146.770 185.062,147.600 184.440,147.844 184.213 C 148.089 183.986,148.978 183.260,149.820 182.600 C 152.756 180.300,154.605 178.808,155.400 178.099 C 155.840 177.706,156.830 176.941,157.600 176.398 C 158.370 175.855,159.749 174.688,160.665 173.805 C 161.581 172.922,162.846 171.750,163.476 171.200 C 171.026 164.613,173.993 161.939,177.899 158.200 C 186.977 149.510,195.220 141.114,202.202 133.449 C 204.181 131.276,206.475 128.787,207.300 127.917 C 208.125 127.047,209.475 125.495,210.300 124.468 C 211.125 123.440,211.898 122.510,212.018 122.400 C 212.139 122.290,213.722 120.400,215.536 118.200 C 217.351 116.000,219.235 113.748,219.723 113.196 C 220.210 112.643,221.050 111.563,221.589 110.796 C 222.128 110.028,223.071 108.923,223.685 108.340 C 224.298 107.756,224.800 107.108,224.800 106.899 C 224.800 106.690,225.340 105.954,226.000 105.263 C 226.660 104.572,227.202 103.871,227.205 103.704 C 227.208 103.537,227.572 102.950,228.013 102.400 C 228.454 101.850,229.623 100.320,230.611 99.000 C 231.599 97.680,232.688 96.240,233.031 95.800 C 233.373 95.360,233.950 94.505,234.313 93.900 C 234.676 93.295,235.114 92.800,235.286 92.800 C 235.459 92.800,235.600 92.564,235.600 92.275 C 235.600 91.987,235.915 91.402,236.300 90.975 C 236.685 90.549,237.255 89.705,237.568 89.100 C 237.880 88.495,238.285 88.000,238.468 88.000 C 238.650 88.000,238.800 87.764,238.800 87.475 C 238.800 87.187,239.115 86.602,239.500 86.175 C 239.885 85.749,240.455 84.905,240.768 84.300 C 241.080 83.695,241.485 83.200,241.668 83.200 C 241.850 83.200,242.000 82.930,242.000 82.600 C 242.000 82.270,242.180 82.000,242.400 82.000 C 242.620 82.000,242.800 81.807,242.800 81.572 C 242.800 81.337,243.308 80.392,243.928 79.472 C 244.549 78.552,245.693 76.630,246.472 75.200 C 247.251 73.770,248.304 71.880,248.813 71.000 C 249.592 69.653,250.802 67.389,253.106 62.972 C 254.621 60.066,256.000 57.004,256.000 56.544 C 256.000 56.245,256.180 56.000,256.400 56.000 C 256.620 56.000,256.800 55.728,256.800 55.395 C 256.800 55.062,256.980 54.432,257.200 53.995 C 257.420 53.558,257.780 52.842,258.000 52.405 C 258.220 51.968,258.400 51.338,258.400 51.005 C 258.400 50.672,258.580 50.400,258.800 50.400 C 259.020 50.400,259.200 50.038,259.200 49.595 C 259.200 49.152,259.362 48.477,259.559 48.095 C 259.756 47.713,260.308 46.050,260.785 44.400 C 261.263 42.750,261.817 40.876,262.016 40.235 C 264.201 33.230,263.245 22.300,260.082 18.097 C 259.352 17.128,259.161 16.494,259.336 15.620 C 259.523 14.684,259.411 14.394,258.788 14.196 C 258.357 14.059,257.727 13.670,257.388 13.331 C 257.048 12.991,256.345 12.688,255.824 12.657 C 255.303 12.626,254.960 12.465,255.062 12.300 C 255.164 12.135,254.967 12.000,254.624 12.000 C 254.281 12.000,254.000 11.797,254.000 11.549 C 254.000 11.250,253.335 11.162,252.020 11.288 C 250.708 11.415,250.067 11.331,250.120 11.039 C 250.173 10.751,248.859 10.561,246.300 10.486 C 242.791 10.383,241.400 10.730,242.900 11.335 C 243.292 11.493,243.289 11.544,242.887 11.568 C 242.606 11.586,242.271 11.330,242.145 11.000 C 241.866 10.274,241.200 10.203,241.200 10.900 M216.849 19.561 C 216.546 19.753,216.403 20.081,216.531 20.289 C 216.660 20.497,216.512 20.667,216.204 20.667 C 215.784 20.667,215.742 20.482,216.036 19.933 C 216.252 19.530,216.647 19.203,216.914 19.206 C 217.247 19.210,217.226 19.322,216.849 19.561 M195.200 32.200 C 194.668 32.842,193.600 33.019,193.600 32.467 C 193.600 31.919,194.085 31.600,194.916 31.600 C 195.566 31.600,195.614 31.701,195.200 32.200 M116.000 35.376 C 116.000 36.793,115.820 38.064,115.600 38.200 C 115.380 38.336,115.200 38.876,115.200 39.400 C 115.200 39.924,115.020 40.464,114.800 40.600 C 114.580 40.736,114.400 41.197,114.400 41.624 C 114.400 42.051,114.220 42.400,114.000 42.400 C 113.780 42.400,113.600 42.760,113.600 43.200 C 113.600 43.640,113.420 44.000,113.200 44.000 C 112.980 44.000,112.800 44.236,112.800 44.525 C 112.800 44.813,112.440 45.436,112.000 45.908 C 111.560 46.380,111.200 46.978,111.200 47.236 C 111.200 47.495,110.884 47.997,110.497 48.353 C 110.111 48.709,109.544 49.489,109.237 50.086 C 107.947 52.601,99.456 62.047,96.415 64.351 C 95.653 64.928,94.226 66.165,93.243 67.100 C 92.261 68.035,91.322 68.800,91.157 68.800 C 90.992 68.800,90.619 69.031,90.329 69.313 C 89.063 70.542,84.173 73.654,81.792 74.747 C 81.136 75.047,80.287 75.452,79.905 75.647 C 79.523 75.841,78.884 76.000,78.485 76.000 C 78.086 76.000,77.574 76.186,77.346 76.414 C 77.118 76.642,75.732 76.838,74.266 76.849 C 72.800 76.860,71.600 76.957,71.600 77.063 C 71.600 77.405,72.577 78.236,73.300 78.510 C 73.685 78.656,74.000 79.051,74.000 79.387 C 74.000 79.982,74.359 80.133,75.600 80.059 C 75.968 80.037,76.015 80.106,75.722 80.237 C 75.189 80.477,75.472 81.600,76.066 81.600 C 76.276 81.600,76.337 81.422,76.203 81.205 C 76.060 80.973,76.230 80.914,76.613 81.060 C 77.084 81.241,77.133 81.394,76.788 81.608 C 76.306 81.905,81.281 87.200,82.042 87.200 C 82.239 87.200,82.400 87.446,82.400 87.746 C 82.400 88.047,83.206 88.921,84.191 89.689 C 85.176 90.456,85.866 91.200,85.725 91.342 C 85.583 91.484,85.677 91.600,85.933 91.600 C 86.190 91.600,86.400 91.251,86.400 90.824 C 86.400 90.397,86.608 89.919,86.862 89.762 C 87.148 89.585,87.215 89.652,87.038 89.938 C 86.877 90.199,86.985 90.400,87.288 90.400 C 87.583 90.400,88.083 90.760,88.400 91.200 C 89.242 92.368,95.200 91.932,95.200 90.703 C 95.200 90.536,95.650 90.400,96.200 90.400 C 96.750 90.400,97.200 90.220,97.200 90.000 C 97.200 89.780,97.470 89.600,97.800 89.600 C 98.130 89.600,98.403 89.375,98.406 89.100 C 98.410 88.746,98.517 88.765,98.769 89.164 C 98.965 89.474,99.033 89.969,98.920 90.264 C 98.628 91.025,99.397 90.929,100.051 90.123 C 100.415 89.675,100.433 89.547,100.105 89.744 C 99.766 89.947,99.686 89.841,99.852 89.409 C 100.071 88.838,100.141 88.840,100.574 89.433 C 101.016 90.036,101.106 90.037,101.698 89.444 C 102.053 89.090,102.549 88.800,102.800 88.800 C 103.552 88.800,104.361 87.757,104.234 86.952 C 104.168 86.539,104.192 86.425,104.287 86.700 C 104.560 87.494,105.294 87.289,106.800 86.000 C 107.570 85.341,108.357 84.801,108.549 84.801 C 108.741 84.800,108.694 84.554,108.444 84.253 C 108.098 83.837,108.137 83.584,108.604 83.196 C 109.120 82.769,109.178 82.792,108.966 83.343 C 108.828 83.705,108.832 84.000,108.975 84.000 C 109.446 84.000,111.157 82.091,110.909 81.842 C 110.776 81.709,110.922 81.587,111.233 81.572 C 111.568 81.555,111.472 81.403,111.000 81.200 C 110.229 80.869,110.231 80.855,111.076 80.828 C 111.558 80.813,112.065 80.981,112.202 81.203 C 112.358 81.455,112.666 81.391,113.026 81.032 C 113.786 80.271,113.766 79.764,113.000 80.400 C 112.670 80.674,112.400 80.728,112.400 80.521 C 112.400 80.314,112.985 79.883,113.700 79.563 C 114.415 79.243,114.957 78.767,114.905 78.505 C 114.850 78.233,115.065 78.127,115.405 78.257 C 115.816 78.415,116.000 78.225,116.000 77.643 C 116.000 77.151,116.256 76.800,116.615 76.800 C 117.516 76.800,120.795 73.272,120.832 72.263 C 120.849 71.788,120.950 71.613,121.056 71.874 C 121.256 72.365,123.280 70.288,124.508 68.330 C 125.008 67.533,125.054 67.209,124.690 67.061 C 124.420 66.952,124.625 66.849,125.145 66.832 C 125.964 66.804,126.067 66.639,125.914 65.598 C 125.809 64.882,125.912 64.416,126.169 64.446 C 127.226 64.566,127.600 64.345,127.600 63.600 C 127.600 63.160,127.799 62.800,128.043 62.800 C 128.286 62.800,128.378 62.521,128.247 62.179 C 128.103 61.802,128.175 61.661,128.432 61.819 C 128.664 61.963,128.953 61.702,129.074 61.240 C 129.194 60.778,129.452 60.400,129.647 60.400 C 129.841 60.400,130.000 60.220,130.000 60.000 C 130.000 59.780,129.640 59.600,129.200 59.600 C 128.756 59.600,128.400 59.333,128.400 59.000 C 128.400 58.670,128.547 58.400,128.728 58.400 C 128.908 58.400,129.304 57.489,129.607 56.375 C 129.910 55.261,130.303 54.260,130.479 54.151 C 131.168 53.725,130.818 50.170,130.000 49.292 C 129.560 48.820,129.200 48.235,129.200 47.993 C 129.200 47.751,128.992 47.681,128.738 47.838 C 128.422 48.034,128.387 47.946,128.627 47.562 C 129.362 46.383,129.253 45.529,128.402 45.799 C 127.923 45.951,127.600 45.872,127.600 45.603 C 127.600 45.356,127.780 45.264,128.000 45.400 C 128.588 45.763,128.487 45.230,127.848 44.590 C 127.544 44.287,127.184 44.150,127.048 44.286 C 126.911 44.422,126.800 44.233,126.800 43.867 C 126.800 43.500,126.552 43.200,126.249 43.200 C 125.946 43.200,125.476 42.932,125.204 42.604 C 124.932 42.277,124.505 42.131,124.255 42.281 C 124.005 42.431,124.070 42.215,124.400 41.802 C 124.942 41.122,124.935 41.075,124.320 41.305 C 123.811 41.495,123.703 41.397,123.888 40.914 C 124.053 40.484,123.980 40.365,123.668 40.558 C 123.387 40.732,123.200 40.598,123.200 40.224 C 123.200 39.881,122.919 39.600,122.576 39.600 C 122.233 39.600,122.064 39.420,122.200 39.200 C 122.336 38.980,122.032 38.786,121.524 38.768 C 121.016 38.751,120.815 38.649,121.078 38.543 C 121.802 38.248,121.222 37.200,120.334 37.200 C 119.904 37.200,119.665 37.019,119.802 36.797 C 119.939 36.575,119.782 36.125,119.454 35.797 C 118.747 35.090,118.232 35.005,118.638 35.662 C 118.816 35.950,118.748 36.015,118.455 35.834 C 118.198 35.675,118.077 35.398,118.188 35.219 C 118.428 34.831,116.902 32.800,116.371 32.800 C 116.167 32.800,116.000 33.959,116.000 35.376 M137.994 76.300 C 137.978 77.099,137.310 77.665,137.083 77.073 C 136.958 76.746,136.963 76.371,137.094 76.239 C 137.431 75.903,138.001 75.941,137.994 76.300 M134.627 80.306 C 134.264 80.669,133.149 80.006,133.410 79.583 C 133.589 79.293,133.851 79.310,134.245 79.638 C 134.561 79.900,134.733 80.201,134.627 80.306 M195.200 117.785 C 199.538 118.513,202.394 119.384,205.369 120.886 C 208.954 122.695,209.094 122.931,207.521 124.514 C 206.794 125.245,205.300 126.911,204.200 128.215 C 201.888 130.957,198.818 134.306,195.400 137.813 C 194.080 139.167,191.283 142.058,189.185 144.238 C 187.087 146.417,182.881 150.540,179.839 153.400 C 176.797 156.260,173.089 159.770,171.598 161.200 C 167.824 164.820,162.823 169.341,162.198 169.699 C 161.663 170.004,160.373 168.130,159.101 165.200 C 148.567 140.929,169.476 113.466,195.200 117.785 M80.060 142.200 C 80.060 142.409,79.897 142.635,79.697 142.701 C 79.497 142.768,79.333 142.542,79.333 142.200 C 79.333 141.858,79.497 141.632,79.697 141.699 C 79.897 141.766,80.060 141.991,80.060 142.200 M71.330 155.917 C 71.472 155.562,71.547 155.549,71.568 155.876 C 71.612 156.538,70.683 157.048,70.489 156.468 C 70.403 156.208,70.139 156.114,69.904 156.259 C 69.645 156.419,69.594 156.334,69.774 156.042 C 69.990 155.692,70.214 155.680,70.597 155.997 C 70.982 156.317,71.177 156.296,71.330 155.917 " stroke="none" fill="#66ac6b" fill-rule="evenodd"></path>
        <path id="path2" d="M207.200 263.814 C 205.550 264.098,203.390 264.549,202.400 264.815 C 201.410 265.081,199.655 265.268,198.500 265.231 C 197.261 265.190,196.400 265.334,196.400 265.581 C 196.400 265.812,196.040 266.000,195.600 266.000 C 195.160 266.000,194.800 266.159,194.800 266.353 C 194.800 266.548,194.446 266.799,194.013 266.912 C 193.580 267.026,192.917 267.767,192.539 268.559 C 192.161 269.352,191.705 270.000,191.526 270.000 C 191.347 270.000,191.200 270.320,191.200 270.712 C 191.200 271.103,190.840 271.683,190.400 272.000 C 189.960 272.317,189.600 272.897,189.600 273.288 C 189.600 273.680,189.454 274.000,189.275 274.000 C 189.096 274.000,188.702 274.630,188.400 275.400 C 188.098 276.170,187.704 276.800,187.525 276.800 C 187.346 276.800,187.200 277.070,187.200 277.400 C 187.200 277.730,187.054 278.000,186.875 278.000 C 186.696 278.000,186.302 278.630,186.000 279.400 C 185.698 280.170,185.304 280.800,185.125 280.800 C 184.946 280.800,184.800 281.160,184.800 281.600 C 184.800 282.040,184.620 282.400,184.400 282.400 C 184.180 282.400,184.000 282.760,184.000 283.200 C 184.000 283.640,183.820 284.000,183.600 284.000 C 183.380 284.000,183.200 284.360,183.200 284.800 C 183.200 285.240,183.020 285.600,182.800 285.600 C 182.580 285.600,182.400 285.960,182.400 286.400 C 182.400 286.840,182.220 287.200,182.000 287.200 C 181.780 287.200,181.600 287.560,181.600 288.000 C 181.600 288.440,181.390 288.800,181.133 288.800 C 180.877 288.800,180.782 288.915,180.923 289.056 C 181.064 289.197,180.929 289.782,180.624 290.356 C 179.270 292.904,176.000 299.940,176.000 300.306 C 176.000 300.527,175.731 301.224,175.402 301.854 C 175.074 302.484,174.804 303.315,174.802 303.700 C 174.801 304.085,174.620 304.400,174.400 304.400 C 174.180 304.400,174.000 304.760,174.000 305.200 C 174.000 305.640,173.820 306.000,173.600 306.000 C 173.380 306.000,173.200 306.540,173.200 307.200 C 173.200 307.860,173.020 308.400,172.800 308.400 C 172.580 308.400,172.400 308.760,172.400 309.200 C 172.400 309.640,172.220 310.000,172.000 310.000 C 171.780 310.000,171.600 310.450,171.600 311.000 C 171.600 311.550,171.420 312.000,171.200 312.000 C 170.980 312.000,170.800 312.360,170.800 312.800 C 170.800 313.240,170.620 313.600,170.400 313.600 C 170.180 313.600,170.000 314.140,170.000 314.800 C 170.000 315.460,169.820 316.000,169.600 316.000 C 169.380 316.000,169.200 316.439,169.200 316.976 C 169.200 317.513,169.020 318.064,168.800 318.200 C 168.580 318.336,168.400 318.782,168.400 319.190 C 168.400 319.599,168.175 320.009,167.900 320.102 C 167.509 320.233,167.517 320.412,167.940 320.925 C 168.399 321.481,168.349 321.988,167.602 324.290 C 164.323 334.406,163.908 338.892,166.100 340.532 C 170.509 343.833,181.853 346.718,195.400 347.984 C 213.129 349.642,221.396 349.635,238.600 347.950 C 242.541 347.565,245.276 347.160,251.800 345.998 C 256.665 345.132,263.031 343.044,265.857 341.388 C 269.500 339.253,269.525 337.089,266.038 325.952 C 265.190 323.243,264.903 321.675,265.069 320.652 C 265.224 319.700,265.149 319.200,264.852 319.200 C 264.604 319.200,264.400 318.851,264.400 318.424 C 264.400 317.997,264.220 317.536,264.000 317.400 C 263.780 317.264,263.600 316.713,263.600 316.176 C 263.600 315.639,263.420 315.200,263.200 315.200 C 262.980 315.200,262.800 314.660,262.800 314.000 C 262.800 313.340,262.620 312.800,262.400 312.800 C 262.180 312.800,262.000 312.440,262.000 312.000 C 262.000 311.560,261.820 311.200,261.600 311.200 C 261.380 311.200,261.200 310.750,261.200 310.200 C 261.200 309.650,261.020 309.200,260.800 309.200 C 260.580 309.200,260.400 308.840,260.400 308.400 C 260.400 307.960,260.220 307.600,260.000 307.600 C 259.780 307.600,259.600 307.251,259.600 306.824 C 259.600 306.397,259.420 305.936,259.200 305.800 C 258.980 305.664,258.799 305.158,258.798 304.676 C 258.796 304.194,258.526 303.284,258.198 302.654 C 257.869 302.024,257.600 301.259,257.600 300.954 C 257.600 300.649,257.420 300.400,257.200 300.400 C 256.980 300.400,256.800 300.119,256.800 299.775 C 256.800 299.013,254.367 293.853,253.920 293.667 C 253.744 293.593,253.600 293.188,253.600 292.767 C 253.600 292.345,253.420 292.000,253.200 292.000 C 252.980 292.000,252.800 291.764,252.800 291.475 C 252.800 290.419,246.578 277.968,245.900 277.667 C 245.735 277.593,245.600 277.188,245.600 276.767 C 245.600 276.345,245.420 276.000,245.200 276.000 C 244.980 276.000,244.800 275.730,244.800 275.400 C 244.800 275.070,244.620 274.800,244.400 274.800 C 244.180 274.800,244.000 274.480,244.000 274.088 C 244.000 273.697,243.640 273.117,243.200 272.800 C 242.760 272.483,242.400 271.903,242.400 271.512 C 242.400 271.120,242.220 270.800,242.000 270.800 C 241.780 270.800,241.597 270.485,241.594 270.100 C 241.586 269.292,239.512 266.800,238.847 266.800 C 238.601 266.800,238.400 266.664,238.400 266.498 C 238.400 265.907,236.173 265.223,234.400 265.270 C 233.410 265.296,231.790 265.098,230.800 264.829 C 224.822 263.205,213.550 262.720,207.200 263.814 " stroke="none" fill="#66ac6b" fill-rule="evenodd"></path>
        <path id="path3" d="M228.777 14.137 C 229.049 14.409,229.037 14.714,228.742 15.070 C 228.421 15.456,228.424 15.600,228.751 15.600 C 228.998 15.600,229.214 15.465,229.231 15.300 C 229.247 15.135,229.317 14.715,229.385 14.367 C 229.454 14.018,229.254 13.733,228.941 13.733 C 228.559 13.733,228.505 13.865,228.777 14.137 M259.200 16.062 C 259.200 16.536,259.619 17.481,260.131 18.162 C 263.245 22.301,264.183 33.287,262.016 40.235 C 261.817 40.876,261.263 42.750,260.785 44.400 C 260.308 46.050,259.756 47.713,259.559 48.095 C 259.362 48.477,259.200 49.152,259.200 49.595 C 259.200 50.038,259.020 50.400,258.800 50.400 C 258.580 50.400,258.400 50.672,258.400 51.005 C 258.400 51.338,258.192 52.013,257.938 52.505 C 256.967 54.382,256.800 54.807,256.800 55.395 C 256.800 55.728,256.620 56.000,256.400 56.000 C 256.180 56.000,256.000 56.245,256.000 56.544 C 256.000 57.004,254.621 60.066,253.106 62.972 C 250.802 67.389,249.592 69.653,248.813 71.000 C 248.304 71.880,247.251 73.770,246.472 75.200 C 245.693 76.630,244.549 78.552,243.928 79.472 C 243.308 80.392,242.800 81.337,242.800 81.572 C 242.800 81.807,242.620 82.000,242.400 82.000 C 242.180 82.000,242.000 82.270,242.000 82.600 C 242.000 82.930,241.850 83.200,241.668 83.200 C 241.485 83.200,241.080 83.695,240.768 84.300 C 240.455 84.905,239.885 85.749,239.500 86.175 C 239.115 86.602,238.800 87.187,238.800 87.475 C 238.800 87.764,238.650 88.000,238.468 88.000 C 238.285 88.000,237.880 88.495,237.568 89.100 C 237.255 89.705,236.685 90.549,236.300 90.975 C 235.915 91.402,235.600 91.987,235.600 92.275 C 235.600 92.564,235.459 92.800,235.286 92.800 C 235.114 92.800,234.676 93.295,234.313 93.900 C 233.950 94.505,233.373 95.360,233.031 95.800 C 232.688 96.240,231.599 97.680,230.611 99.000 C 229.623 100.320,228.454 101.850,228.013 102.400 C 227.572 102.950,227.208 103.537,227.205 103.704 C 227.202 103.871,226.660 104.572,226.000 105.263 C 225.340 105.954,224.800 106.690,224.800 106.899 C 224.800 107.108,224.298 107.756,223.685 108.340 C 223.071 108.923,222.128 110.028,221.589 110.796 C 221.050 111.563,220.210 112.643,219.723 113.196 C 219.235 113.748,217.351 116.000,215.536 118.200 C 213.722 120.400,212.139 122.290,212.018 122.400 C 211.898 122.510,211.125 123.440,210.300 124.468 C 209.475 125.495,208.125 127.047,207.300 127.917 C 206.475 128.787,204.181 131.276,202.202 133.449 C 195.220 141.114,186.977 149.510,177.899 158.200 C 173.993 161.939,171.026 164.613,163.476 171.200 C 162.846 171.750,161.581 172.922,160.665 173.805 C 159.749 174.688,158.370 175.855,157.600 176.398 C 156.830 176.941,155.840 177.706,155.400 178.099 C 154.605 178.808,152.756 180.300,149.820 182.600 C 148.978 183.260,148.089 183.986,147.844 184.213 C 147.600 184.440,146.770 185.062,146.000 185.594 C 145.230 186.127,144.309 186.886,143.953 187.281 C 143.597 187.676,143.140 188.000,142.937 188.000 C 142.734 188.000,141.772 188.720,140.800 189.600 C 139.828 190.480,138.840 191.200,138.604 191.200 C 138.369 191.200,137.917 191.560,137.600 192.000 C 137.283 192.440,136.808 192.800,136.545 192.800 C 136.282 192.800,136.007 192.943,135.933 193.117 C 135.793 193.450,125.708 200.400,125.365 200.400 C 125.256 200.400,124.780 200.760,124.308 201.200 C 123.836 201.640,123.213 202.000,122.925 202.000 C 122.636 202.000,122.400 202.180,122.400 202.400 C 122.400 202.620,122.164 202.800,121.875 202.800 C 121.587 202.800,120.964 203.160,120.492 203.600 C 120.020 204.040,119.523 204.400,119.389 204.400 C 119.254 204.400,118.359 204.940,117.400 205.600 C 116.441 206.260,115.478 206.800,115.261 206.800 C 115.044 206.800,114.807 206.935,114.733 207.100 C 114.566 207.476,112.436 208.775,111.500 209.071 C 111.115 209.193,110.800 209.452,110.800 209.647 C 110.800 209.841,110.455 210.000,110.033 210.000 C 109.612 210.000,109.207 210.155,109.133 210.345 C 109.018 210.641,96.049 217.099,93.800 217.980 C 93.360 218.152,92.460 218.521,91.800 218.800 C 91.140 219.079,90.150 219.484,89.600 219.700 C 89.050 219.916,88.287 220.252,87.905 220.447 C 87.523 220.641,86.859 220.800,86.429 220.800 C 85.999 220.800,85.536 220.980,85.400 221.200 C 85.264 221.420,84.724 221.600,84.200 221.600 C 83.676 221.600,83.136 221.780,83.000 222.000 C 82.864 222.220,82.234 222.400,81.600 222.400 C 80.966 222.400,80.336 222.580,80.200 222.800 C 80.064 223.020,79.344 223.200,78.600 223.200 C 77.856 223.200,77.136 223.380,77.000 223.600 C 76.864 223.820,75.694 224.000,74.400 224.000 C 73.106 224.000,71.936 224.180,71.800 224.400 C 71.664 224.620,70.134 224.800,68.400 224.800 C 66.666 224.800,65.136 224.620,65.000 224.400 C 64.864 224.180,63.953 224.000,62.976 224.000 C 61.999 224.000,61.200 223.820,61.200 223.600 C 61.200 223.380,60.947 223.200,60.638 223.200 C 59.881 223.200,56.800 221.535,56.800 221.126 C 56.800 220.947,56.519 220.800,56.176 220.800 C 55.833 220.800,55.640 220.659,55.747 220.486 C 55.854 220.313,55.594 220.171,55.171 220.171 C 54.747 220.171,54.400 220.374,54.400 220.622 C 54.400 221.103,57.479 224.399,57.931 224.401 C 58.079 224.402,58.560 224.941,59.000 225.600 C 59.440 226.259,59.985 226.798,60.212 226.799 C 60.438 226.799,60.883 227.160,61.200 227.600 C 61.517 228.040,61.919 228.400,62.092 228.400 C 62.265 228.400,62.972 228.940,63.663 229.600 C 64.354 230.260,65.083 230.800,65.283 230.800 C 65.483 230.800,65.519 231.008,65.362 231.262 C 65.190 231.539,65.252 231.615,65.515 231.452 C 65.757 231.303,66.551 231.770,67.280 232.491 C 68.009 233.211,69.100 234.055,69.703 234.368 C 70.306 234.680,70.800 235.085,70.800 235.268 C 70.800 235.450,71.072 235.600,71.404 235.600 C 71.736 235.600,72.572 236.140,73.263 236.800 C 73.954 237.460,74.762 238.000,75.059 238.000 C 75.357 238.000,75.600 238.177,75.600 238.392 C 75.600 238.608,76.037 238.894,76.571 239.028 C 77.105 239.163,77.644 239.537,77.768 239.861 C 77.893 240.186,78.169 240.343,78.383 240.211 C 78.596 240.079,79.137 240.337,79.585 240.785 C 80.033 241.233,80.760 241.600,81.200 241.600 C 81.640 241.600,82.000 241.780,82.000 242.000 C 82.000 242.220,82.270 242.400,82.600 242.400 C 82.930 242.400,83.200 242.580,83.200 242.800 C 83.200 243.020,83.434 243.200,83.720 243.200 C 84.456 243.200,86.393 244.141,86.397 244.500 C 86.399 244.665,86.760 244.800,87.200 244.800 C 87.640 244.800,88.000 244.980,88.000 245.200 C 88.000 245.420,88.360 245.600,88.800 245.600 C 89.240 245.600,89.600 245.780,89.600 246.000 C 89.600 246.220,89.865 246.400,90.188 246.400 C 90.511 246.400,91.417 246.760,92.200 247.200 C 92.983 247.640,93.989 248.000,94.436 248.000 C 94.882 248.000,95.158 248.144,95.049 248.320 C 94.940 248.496,95.650 248.876,96.626 249.164 C 97.602 249.453,98.400 249.810,98.400 249.959 C 98.400 250.108,98.789 250.259,99.264 250.295 C 99.739 250.331,100.234 250.504,100.364 250.680 C 100.494 250.856,101.050 251.064,101.600 251.141 C 102.150 251.219,102.690 251.399,102.800 251.541 C 102.910 251.684,103.450 251.861,104.000 251.935 C 104.550 252.009,105.171 252.234,105.380 252.435 C 105.589 252.636,106.354 252.800,107.080 252.800 C 107.806 252.800,108.400 252.980,108.400 253.200 C 108.400 253.420,108.929 253.600,109.576 253.600 C 110.223 253.600,110.864 253.780,111.000 254.000 C 111.136 254.220,111.777 254.400,112.424 254.400 C 113.071 254.400,113.600 254.580,113.600 254.800 C 113.600 255.020,114.219 255.200,114.976 255.200 C 115.733 255.200,116.441 255.342,116.548 255.516 C 116.656 255.690,117.412 255.878,118.229 255.933 C 119.046 255.988,120.003 256.177,120.357 256.354 C 120.711 256.531,121.540 256.647,122.200 256.613 C 122.860 256.579,123.714 256.702,124.097 256.888 C 124.480 257.073,125.904 257.318,127.262 257.433 C 128.619 257.548,130.016 257.789,130.365 257.970 C 132.109 258.874,163.736 258.818,164.417 257.910 C 164.537 257.751,165.842 257.577,167.317 257.524 C 168.793 257.470,170.000 257.324,170.000 257.198 C 170.000 256.980,171.579 256.743,173.500 256.673 C 173.995 256.655,174.400 256.531,174.400 256.398 C 174.400 256.265,175.158 256.112,176.085 256.057 C 177.011 256.002,177.963 255.797,178.200 255.600 C 178.437 255.403,179.389 255.198,180.315 255.143 C 181.242 255.088,182.000 254.899,182.000 254.722 C 182.000 254.545,182.709 254.400,183.576 254.400 C 184.443 254.400,185.264 254.220,185.400 254.000 C 185.536 253.780,186.187 253.600,186.847 253.600 C 187.545 253.600,187.944 253.433,187.800 253.200 C 187.653 252.962,188.121 252.800,188.953 252.800 C 189.723 252.800,190.464 252.620,190.600 252.400 C 190.736 252.180,191.387 252.000,192.047 252.000 C 192.745 252.000,193.144 251.833,193.000 251.600 C 192.856 251.367,193.263 251.200,193.976 251.200 C 194.649 251.200,195.200 251.020,195.200 250.800 C 195.200 250.580,195.635 250.400,196.168 250.400 C 196.755 250.400,197.654 249.850,198.456 249.000 C 199.182 248.230,199.918 247.600,200.092 247.600 C 200.412 247.600,203.613 246.245,204.895 245.567 C 205.277 245.365,205.862 245.200,206.195 245.200 C 206.528 245.200,206.800 245.020,206.800 244.800 C 206.800 244.580,207.160 244.400,207.600 244.400 C 208.040 244.400,208.400 244.220,208.400 244.000 C 208.400 243.780,208.641 243.600,208.936 243.600 C 209.453 243.600,215.417 240.648,218.500 238.867 C 219.325 238.390,220.585 237.667,221.300 237.259 C 223.769 235.852,226.355 234.191,230.732 231.202 C 233.579 229.258,234.800 228.777,234.800 229.600 C 234.800 229.820,234.991 230.000,235.224 230.000 C 235.457 230.000,235.546 229.836,235.421 229.635 C 235.297 229.434,235.724 229.035,236.369 228.750 C 237.014 228.464,237.455 228.088,237.348 227.915 C 237.165 227.620,237.788 227.434,238.530 227.563 C 238.711 227.594,238.774 227.480,238.669 227.310 C 238.564 227.139,239.109 226.550,239.880 226.000 C 240.650 225.450,241.623 224.685,242.040 224.300 C 242.458 223.915,242.800 223.714,242.800 223.854 C 242.800 223.994,243.160 223.650,243.600 223.090 C 244.040 222.531,245.210 221.562,246.200 220.937 C 247.189 220.311,247.999 219.575,247.999 219.300 C 248.000 219.025,248.172 218.800,248.383 218.800 C 248.829 218.800,255.380 212.252,258.000 209.186 C 258.990 208.027,260.295 206.573,260.900 205.953 C 261.505 205.334,262.000 204.653,262.000 204.440 C 262.000 204.228,262.331 203.949,262.736 203.820 C 263.141 203.692,263.726 203.096,264.036 202.496 C 264.346 201.897,265.174 200.824,265.876 200.113 C 266.578 199.402,267.453 198.188,267.820 197.414 C 268.187 196.640,268.676 196.123,268.906 196.265 C 269.136 196.407,269.210 196.339,269.070 196.113 C 268.931 195.888,269.128 195.335,269.508 194.885 C 271.310 192.755,271.600 192.373,271.600 192.133 C 271.600 191.991,272.094 191.229,272.699 190.438 C 273.303 189.647,273.798 188.897,273.799 188.771 C 273.799 188.646,274.115 188.228,274.500 187.843 C 274.885 187.458,275.200 186.920,275.200 186.647 C 275.200 186.374,275.515 185.795,275.900 185.360 C 276.285 184.925,276.658 184.306,276.730 183.984 C 276.801 183.663,277.026 183.340,277.230 183.267 C 277.433 183.193,277.600 182.854,277.600 182.514 C 277.600 182.173,277.988 181.558,278.461 181.147 C 278.970 180.705,279.109 180.400,278.800 180.400 C 278.491 180.400,278.630 180.095,279.139 179.653 C 279.612 179.242,280.000 178.612,280.000 178.253 C 280.000 177.894,280.180 177.600,280.400 177.600 C 280.620 177.600,280.804 177.285,280.809 176.900 C 280.814 176.515,281.170 175.750,281.600 175.200 C 282.030 174.650,282.386 174.046,282.391 173.858 C 282.396 173.670,282.835 172.650,283.367 171.591 C 283.898 170.533,284.228 169.562,284.100 169.433 C 283.972 169.305,284.077 169.200,284.333 169.200 C 284.590 169.200,284.800 168.840,284.800 168.400 C 284.800 167.960,284.980 167.600,285.200 167.600 C 285.420 167.600,285.600 167.240,285.600 166.800 C 285.600 166.360,285.780 166.000,286.000 166.000 C 286.220 166.000,286.400 165.640,286.400 165.200 C 286.400 164.760,286.541 164.400,286.713 164.400 C 286.885 164.400,287.066 163.913,287.115 163.318 C 287.164 162.722,287.384 162.056,287.602 161.838 C 287.821 161.619,288.000 161.015,288.000 160.496 C 288.000 159.977,288.143 159.641,288.317 159.749 C 288.491 159.856,288.662 159.568,288.697 159.108 C 288.732 158.648,288.904 158.166,289.080 158.036 C 289.256 157.906,289.450 157.350,289.512 156.800 C 289.573 156.250,289.799 155.740,290.014 155.666 C 290.229 155.592,290.306 155.371,290.184 155.174 C 290.062 154.977,290.188 154.408,290.462 153.908 C 291.039 152.860,291.155 152.420,291.471 150.108 C 291.598 149.177,291.859 148.513,292.051 148.632 C 292.243 148.750,292.400 148.117,292.400 147.224 C 292.400 146.331,292.580 145.600,292.800 145.600 C 293.020 145.600,293.200 144.880,293.200 144.000 C 293.200 143.120,293.380 142.400,293.600 142.400 C 293.820 142.400,294.000 141.695,294.000 140.833 C 294.000 139.972,294.170 139.207,294.378 139.133 C 294.586 139.060,294.798 138.045,294.850 136.879 C 294.902 135.712,295.092 134.667,295.272 134.555 C 295.453 134.444,295.600 133.564,295.600 132.600 C 295.600 131.636,295.780 130.736,296.000 130.600 C 296.220 130.464,296.400 128.913,296.400 127.153 C 296.400 125.121,296.546 124.043,296.800 124.200 C 297.058 124.360,297.200 122.697,297.200 119.504 C 297.200 116.136,297.356 114.404,297.690 114.070 C 298.073 113.687,298.075 113.412,297.698 112.809 C 297.433 112.384,297.376 111.938,297.572 111.817 C 298.027 111.536,298.041 104.736,297.588 104.187 C 297.400 103.960,297.153 101.440,297.038 98.587 C 296.729 90.903,296.385 87.047,295.970 86.620 C 295.766 86.411,295.600 85.466,295.600 84.520 C 295.600 83.574,295.420 82.800,295.200 82.800 C 294.980 82.800,294.800 81.810,294.800 80.600 C 294.800 79.390,294.620 78.400,294.400 78.400 C 294.180 78.400,294.000 77.871,294.000 77.224 C 294.000 76.577,293.820 75.936,293.600 75.800 C 293.380 75.664,293.200 74.843,293.200 73.976 C 293.200 73.109,293.020 72.400,292.800 72.400 C 292.580 72.400,292.400 71.860,292.400 71.200 C 292.400 70.540,292.220 70.000,292.000 70.000 C 291.780 70.000,291.592 69.415,291.582 68.700 C 291.573 67.985,291.291 66.680,290.957 65.800 C 290.623 64.920,290.299 63.930,290.237 63.600 C 289.858 61.585,289.455 60.400,289.150 60.400 C 288.957 60.400,288.800 60.051,288.800 59.624 C 288.800 59.197,288.656 58.758,288.479 58.649 C 288.303 58.540,287.910 57.539,287.607 56.425 C 287.304 55.311,286.908 54.400,286.728 54.400 C 286.547 54.400,286.400 54.040,286.400 53.600 C 286.400 53.160,286.220 52.800,286.000 52.800 C 285.780 52.800,285.600 52.455,285.600 52.033 C 285.600 51.612,285.465 51.207,285.300 51.133 C 284.880 50.947,282.400 45.888,282.400 45.218 C 282.400 44.915,282.283 44.784,282.139 44.927 C 281.840 45.227,280.800 43.384,280.800 42.554 C 280.800 42.249,280.620 42.000,280.400 42.000 C 280.180 42.000,280.000 41.764,280.000 41.475 C 280.000 41.187,279.679 40.602,279.287 40.175 C 278.895 39.749,278.276 38.766,277.911 37.990 C 277.546 37.215,276.787 36.045,276.225 35.390 C 275.662 34.736,275.201 34.015,275.200 33.788 C 275.200 33.562,274.840 33.117,274.400 32.800 C 273.960 32.483,273.600 31.903,273.600 31.512 C 273.600 31.120,273.390 30.800,273.133 30.800 C 272.877 30.800,272.776 30.691,272.909 30.558 C 273.042 30.425,272.712 29.909,272.175 29.412 C 271.639 28.915,271.200 28.323,271.200 28.097 C 271.200 27.871,270.930 27.582,270.600 27.455 C 270.270 27.329,270.000 26.919,270.000 26.546 C 270.000 26.172,269.889 25.978,269.752 26.114 C 269.480 26.387,268.405 25.451,268.391 24.929 C 268.386 24.748,267.396 23.548,266.191 22.263 C 264.985 20.977,264.083 19.789,264.186 19.623 C 264.289 19.457,263.932 19.085,263.393 18.796 C 262.854 18.508,262.311 17.950,262.186 17.556 C 262.061 17.163,261.625 16.735,261.216 16.605 C 260.808 16.476,260.373 16.106,260.250 15.785 C 259.909 14.898,259.200 15.086,259.200 16.062 M221.719 16.255 C 221.877 16.519,221.642 16.800,221.155 16.928 C 220.310 17.149,220.445 18.005,221.324 17.994 C 221.625 17.990,221.591 17.856,221.230 17.627 C 220.802 17.356,220.944 17.233,221.797 17.133 C 222.876 17.007,222.896 16.969,222.190 16.400 C 221.781 16.070,221.569 16.005,221.719 16.255 M216.036 19.933 C 215.742 20.482,215.784 20.667,216.204 20.667 C 216.512 20.667,216.660 20.497,216.531 20.289 C 216.403 20.081,216.546 19.753,216.849 19.561 C 217.226 19.322,217.247 19.210,216.914 19.206 C 216.647 19.203,216.252 19.530,216.036 19.933 M212.962 20.338 C 213.133 20.615,212.987 20.800,212.600 20.800 C 212.244 20.800,212.064 20.980,212.200 21.200 C 212.336 21.420,212.597 21.600,212.781 21.600 C 213.330 21.600,213.600 20.447,213.121 20.151 C 212.852 19.985,212.789 20.059,212.962 20.338 M195.614 29.974 C 195.075 30.980,195.091 31.303,195.669 31.110 C 195.926 31.025,196.166 30.560,196.202 30.077 C 196.281 28.998,196.149 28.974,195.614 29.974 M113.613 31.100 C 113.620 31.265,113.890 31.749,114.213 32.176 C 116.332 34.979,113.774 42.540,108.166 50.049 C 97.706 64.052,82.992 75.306,74.370 75.897 C 72.312 76.038,71.296 76.256,71.542 76.502 C 72.049 77.009,76.828 76.932,77.352 76.408 C 77.576 76.184,78.086 76.000,78.485 76.000 C 78.884 76.000,79.523 75.841,79.905 75.647 C 80.287 75.452,81.136 75.047,81.792 74.747 C 84.173 73.654,89.063 70.542,90.329 69.313 C 90.619 69.031,90.992 68.800,91.157 68.800 C 91.322 68.800,92.261 68.035,93.243 67.100 C 94.226 66.165,95.653 64.928,96.415 64.351 C 99.456 62.047,107.947 52.601,109.237 50.086 C 109.544 49.489,110.111 48.709,110.497 48.353 C 110.884 47.997,111.200 47.495,111.200 47.236 C 111.200 46.978,111.560 46.380,112.000 45.908 C 112.440 45.436,112.800 44.813,112.800 44.525 C 112.800 44.236,112.980 44.000,113.200 44.000 C 113.420 44.000,113.600 43.640,113.600 43.200 C 113.600 42.760,113.780 42.400,114.000 42.400 C 114.220 42.400,114.400 42.051,114.400 41.624 C 114.400 41.197,114.580 40.736,114.800 40.600 C 115.020 40.464,115.200 39.949,115.200 39.456 C 115.200 38.963,115.365 38.389,115.568 38.180 C 116.172 37.555,116.290 32.398,115.700 32.399 C 115.425 32.400,115.245 32.175,115.300 31.900 C 115.355 31.625,115.175 31.445,114.900 31.500 C 114.625 31.555,114.400 31.420,114.400 31.200 C 114.400 30.980,114.220 30.800,114.000 30.800 C 113.780 30.800,113.606 30.935,113.613 31.100 M193.867 31.867 C 193.420 32.313,193.568 32.800,194.151 32.800 C 194.454 32.800,194.926 32.530,195.200 32.200 C 195.722 31.572,194.474 31.260,193.867 31.867 M124.162 42.062 C 123.996 42.330,124.051 42.416,124.293 42.266 C 124.522 42.125,124.932 42.277,125.204 42.604 C 125.476 42.932,125.884 43.200,126.111 43.200 C 126.338 43.200,126.198 42.840,125.800 42.400 C 124.973 41.487,124.569 41.403,124.162 42.062 M129.196 46.100 C 129.143 46.265,129.075 46.535,129.044 46.700 C 129.013 46.865,128.828 47.253,128.632 47.562 C 128.388 47.948,128.421 48.034,128.738 47.838 C 128.992 47.681,129.200 47.751,129.200 47.993 C 129.200 48.235,129.560 48.820,130.000 49.292 C 130.818 50.170,131.168 53.725,130.479 54.151 C 130.303 54.260,129.910 55.261,129.607 56.375 C 129.304 57.489,128.908 58.400,128.728 58.400 C 128.547 58.400,128.400 58.670,128.400 59.000 C 128.400 60.281,129.046 59.484,130.103 56.899 C 131.402 53.721,131.637 49.660,130.572 48.777 C 130.227 48.490,130.030 47.928,130.135 47.527 C 130.240 47.127,130.176 46.891,129.993 47.004 C 129.810 47.117,129.578 46.893,129.477 46.505 C 129.376 46.117,129.249 45.935,129.196 46.100 M173.441 46.867 C 173.555 47.050,173.086 47.200,172.400 47.200 C 171.670 47.200,171.255 47.366,171.400 47.600 C 171.536 47.820,172.817 48.000,174.247 48.000 C 175.879 48.000,176.755 47.851,176.600 47.600 C 176.464 47.380,175.813 47.200,175.153 47.200 C 174.493 47.200,174.045 47.050,174.159 46.867 C 174.272 46.683,174.111 46.533,173.800 46.533 C 173.489 46.533,173.328 46.683,173.441 46.867 M181.715 48.296 C 182.988 48.376,184.968 48.375,186.115 48.294 C 187.262 48.214,186.220 48.149,183.800 48.150 C 181.380 48.151,180.442 48.216,181.715 48.296 M225.300 48.696 C 226.565 48.775,228.635 48.775,229.900 48.696 C 231.165 48.616,230.130 48.551,227.600 48.551 C 225.070 48.551,224.035 48.616,225.300 48.696 M246.300 49.095 C 247.455 49.176,249.345 49.176,250.500 49.095 C 251.655 49.014,250.710 48.948,248.400 48.948 C 246.090 48.948,245.145 49.014,246.300 49.095 M256.400 49.782 C 256.400 50.128,256.241 50.723,256.047 51.105 C 255.852 51.487,255.512 52.250,255.290 52.800 C 255.068 53.350,254.327 55.023,253.643 56.518 C 252.960 58.013,252.400 59.349,252.400 59.486 C 252.400 59.624,252.102 60.066,251.738 60.469 C 251.122 61.150,251.122 61.200,251.748 61.200 C 252.175 61.200,252.508 60.762,252.660 60.000 C 252.792 59.340,253.058 58.800,253.250 58.800 C 253.443 58.800,253.600 58.440,253.600 58.000 C 253.600 57.560,253.736 57.200,253.902 57.200 C 254.069 57.200,254.444 56.615,254.736 55.900 C 255.028 55.185,255.415 54.240,255.596 53.800 C 256.799 50.877,257.142 49.611,256.790 49.394 C 256.575 49.261,256.400 49.436,256.400 49.782 M155.500 60.276 C 154.644 60.499,154.572 61.067,155.400 61.067 C 155.730 61.067,156.000 60.944,156.000 60.794 C 156.000 60.644,157.301 60.483,158.890 60.437 C 160.480 60.390,161.860 60.273,161.957 60.176 C 162.186 59.947,156.416 60.036,155.500 60.276 M166.319 60.298 C 168.144 60.372,171.024 60.372,172.719 60.297 C 174.414 60.222,172.920 60.161,169.400 60.162 C 165.880 60.162,164.494 60.224,166.319 60.298 M210.915 60.696 C 212.188 60.776,214.168 60.775,215.315 60.694 C 216.462 60.614,215.420 60.549,213.000 60.550 C 210.580 60.551,209.642 60.616,210.915 60.696 M232.900 61.098 C 234.825 61.171,237.975 61.171,239.900 61.098 C 241.825 61.025,240.250 60.965,236.400 60.965 C 232.550 60.965,230.975 61.025,232.900 61.098 M125.891 65.226 C 126.032 65.766,126.243 65.917,126.499 65.661 C 126.913 65.247,126.587 64.400,126.014 64.400 C 125.827 64.400,125.772 64.772,125.891 65.226 M142.884 70.244 C 142.520 70.637,142.505 70.800,142.833 70.800 C 143.152 70.800,143.126 71.008,142.749 71.465 C 142.251 72.069,142.284 72.086,143.100 71.651 C 144.057 71.141,144.163 70.872,143.694 70.144 C 143.481 69.814,143.258 69.842,142.884 70.244 M69.200 74.000 C 69.200 74.220,69.380 74.400,69.600 74.400 C 69.820 74.400,70.000 74.760,70.000 75.200 C 70.000 75.640,70.150 76.000,70.333 76.000 C 70.848 76.000,70.727 74.670,70.162 74.105 C 69.554 73.497,69.200 73.458,69.200 74.000 M137.094 76.239 C 136.963 76.371,136.958 76.746,137.083 77.073 C 137.269 77.557,137.374 77.568,137.650 77.134 C 138.239 76.203,137.814 75.519,137.094 76.239 M133.410 79.583 C 133.267 79.816,133.438 80.117,133.792 80.252 C 134.672 80.590,134.946 80.219,134.245 79.638 C 133.851 79.310,133.589 79.293,133.410 79.583 M112.812 79.984 C 111.859 80.587,112.509 80.714,113.600 80.139 C 114.151 79.848,114.331 79.612,114.000 79.612 C 113.670 79.612,113.135 79.780,112.812 79.984 M111.000 81.200 C 111.440 81.389,111.564 81.556,111.276 81.572 C 110.988 81.587,110.869 81.789,111.012 82.019 C 111.189 82.307,111.448 82.292,111.831 81.974 C 112.562 81.368,112.183 80.793,111.076 80.828 C 110.231 80.855,110.229 80.869,111.000 81.200 M98.432 89.100 C 98.414 89.375,98.130 89.600,97.800 89.600 C 97.470 89.600,97.200 89.779,97.200 89.997 C 97.200 90.216,97.605 90.333,98.100 90.258 C 98.995 90.121,99.041 90.026,98.662 89.090 C 98.508 88.710,98.456 88.712,98.432 89.100 M99.891 89.307 C 99.532 90.243,100.199 90.528,100.855 89.719 C 101.155 89.349,101.190 89.172,100.934 89.326 C 100.678 89.479,100.396 89.388,100.308 89.123 C 100.205 88.815,100.054 88.882,99.891 89.307 M86.667 89.867 C 86.130 90.403,86.432 91.012,87.474 91.496 C 88.061 91.769,88.621 91.912,88.718 91.815 C 88.976 91.558,87.737 90.400,87.205 90.400 C 86.956 90.400,86.864 90.220,87.000 90.000 C 87.280 89.547,87.070 89.463,86.667 89.867 M122.054 90.506 C 121.804 90.756,121.603 91.149,121.606 91.380 C 121.609 91.611,121.776 91.542,121.976 91.226 C 122.277 90.750,122.447 90.741,122.970 91.175 C 123.742 91.816,123.810 91.353,123.054 90.597 C 122.647 90.190,122.393 90.167,122.054 90.506 M95.200 90.800 C 95.200 91.020,95.459 91.200,95.776 91.200 C 96.093 91.200,96.464 91.020,96.600 90.800 C 96.736 90.580,96.477 90.400,96.024 90.400 C 95.571 90.400,95.200 90.580,95.200 90.800 M93.200 91.600 C 92.667 91.945,92.667 91.988,93.200 91.988 C 93.530 91.988,94.070 91.813,94.400 91.600 C 94.933 91.255,94.933 91.212,94.400 91.212 C 94.070 91.212,93.530 91.387,93.200 91.600 M113.779 99.566 C 113.903 99.767,113.779 100.026,113.502 100.141 C 113.226 100.255,113.400 100.305,113.890 100.252 C 114.379 100.198,114.919 100.000,115.090 99.813 C 115.260 99.625,115.175 99.601,114.900 99.759 C 114.625 99.918,114.400 99.857,114.400 99.624 C 114.400 99.391,114.209 99.200,113.976 99.200 C 113.743 99.200,113.655 99.365,113.779 99.566 M102.259 111.809 C 102.469 112.358,102.400 112.453,101.968 112.207 C 101.508 111.944,101.495 111.985,101.900 112.421 C 102.247 112.795,102.528 112.832,102.817 112.543 C 103.106 112.254,103.042 111.967,102.608 111.606 C 102.072 111.162,102.022 111.191,102.259 111.809 M100.692 113.970 C 100.562 114.469,100.663 114.674,100.979 114.553 C 101.247 114.450,101.467 114.103,101.467 113.783 C 101.467 112.938,100.928 113.068,100.692 113.970 M99.467 115.867 C 99.320 116.013,99.234 117.408,99.276 118.967 L 99.351 121.800 99.498 119.428 C 99.598 117.805,99.858 116.889,100.322 116.527 C 100.944 116.042,100.936 116.020,100.234 116.267 C 99.705 116.453,99.558 116.391,99.758 116.068 C 100.072 115.560,99.896 115.438,99.467 115.867 M185.267 117.812 C 183.434 118.099,181.814 118.461,181.667 118.618 C 181.520 118.774,182.300 118.744,183.400 118.551 C 189.131 117.545,198.599 118.342,202.600 120.168 C 203.260 120.469,204.655 121.099,205.700 121.568 C 207.877 122.544,207.920 122.650,206.700 124.015 C 206.205 124.568,205.004 125.916,204.031 127.011 C 192.958 139.462,177.380 154.999,164.800 166.137 C 163.150 167.598,161.710 168.795,161.599 168.797 C 161.235 168.803,159.326 164.755,158.487 162.200 C 157.137 158.088,157.000 157.113,157.000 151.600 C 157.000 145.757,157.331 143.850,159.187 139.000 C 161.832 132.086,168.844 124.404,175.119 121.546 C 176.086 121.105,176.788 120.654,176.678 120.544 C 176.373 120.240,173.289 121.893,170.581 123.811 C 165.132 127.671,160.517 133.848,158.034 140.600 C 155.904 146.397,155.908 156.908,158.044 162.600 C 159.700 167.016,161.503 170.096,162.198 169.699 C 162.823 169.341,167.824 164.820,171.598 161.200 C 173.089 159.770,176.797 156.260,179.839 153.400 C 182.881 150.540,187.087 146.417,189.185 144.238 C 191.283 142.058,194.080 139.167,195.400 137.813 C 198.818 134.306,201.888 130.957,204.200 128.215 C 205.300 126.911,206.794 125.245,207.521 124.514 C 209.094 122.931,208.954 122.695,205.369 120.886 C 199.256 117.800,192.226 116.725,185.267 117.812 M178.929 119.330 C 178.229 119.589,177.524 119.935,177.362 120.100 C 176.839 120.632,178.154 120.362,179.800 119.600 C 181.566 118.783,180.938 118.588,178.929 119.330 M86.428 134.876 C 86.413 136.348,86.580 137.664,86.800 137.800 C 87.294 138.105,87.294 134.149,86.800 133.000 C 86.560 132.442,86.448 133.010,86.428 134.876 M79.333 142.200 C 79.333 142.542,79.497 142.768,79.697 142.701 C 79.897 142.635,80.060 142.409,80.060 142.200 C 80.060 141.991,79.897 141.766,79.697 141.699 C 79.497 141.632,79.333 141.858,79.333 142.200 M99.372 151.000 C 99.372 156.060,99.429 158.075,99.499 155.477 C 99.569 152.880,99.568 148.740,99.498 146.277 C 99.428 143.815,99.371 145.940,99.372 151.000 M73.018 151.543 C 72.888 151.951,72.393 152.459,71.917 152.672 C 71.144 153.016,71.126 153.086,71.747 153.324 C 72.129 153.471,72.344 153.433,72.225 153.241 C 72.106 153.048,72.327 152.808,72.715 152.706 C 73.103 152.605,73.450 152.134,73.485 151.661 C 73.565 150.603,73.335 150.545,73.018 151.543 M87.372 161.000 C 87.372 166.060,87.429 168.075,87.499 165.477 C 87.569 162.880,87.568 158.740,87.498 156.277 C 87.428 153.815,87.371 155.940,87.372 161.000 M69.774 156.042 C 69.594 156.334,69.645 156.419,69.904 156.259 C 70.139 156.114,70.403 156.208,70.489 156.468 C 70.683 157.048,71.612 156.538,71.568 155.876 C 71.547 155.549,71.472 155.562,71.330 155.917 C 71.177 156.296,70.982 156.317,70.597 155.997 C 70.214 155.680,69.990 155.692,69.774 156.042 M61.713 170.900 C 61.857 171.285,61.801 171.600,61.587 171.600 C 61.374 171.600,61.200 171.420,61.200 171.200 C 61.200 170.980,60.990 170.800,60.733 170.800 C 60.477 170.800,60.385 170.918,60.530 171.063 C 60.675 171.208,60.599 171.560,60.363 171.845 C 60.016 172.263,60.182 172.292,61.220 171.994 C 62.885 171.517,62.954 171.423,62.135 170.757 C 61.532 170.266,61.481 170.283,61.713 170.900 M99.750 180.200 C 99.751 182.620,99.816 183.558,99.896 182.285 C 99.976 181.012,99.975 179.032,99.894 177.885 C 99.814 176.738,99.749 177.780,99.750 180.200 M54.690 185.190 C 55.050 185.593,55.063 185.883,54.742 186.270 C 54.408 186.673,54.458 186.800,54.951 186.800 C 55.810 186.800,55.780 185.834,54.900 185.168 C 54.309 184.721,54.276 184.724,54.690 185.190 M87.744 197.600 C 87.744 199.690,87.812 200.545,87.894 199.500 C 87.976 198.455,87.976 196.745,87.894 195.700 C 87.812 194.655,87.744 195.510,87.744 197.600 M100.000 212.162 C 100.000 212.471,98.921 213.223,97.602 213.831 C 96.284 214.440,95.294 215.027,95.403 215.136 C 95.582 215.315,96.532 214.952,98.495 213.953 C 98.877 213.759,99.462 213.600,99.795 213.600 C 100.174 213.600,100.400 213.226,100.400 212.600 C 100.400 212.050,100.310 211.600,100.200 211.600 C 100.090 211.600,100.000 211.853,100.000 212.162 M91.645 216.459 C 89.277 217.428,88.622 217.562,88.351 217.134 C 88.165 216.840,88.012 216.780,88.012 217.000 C 88.012 217.790,88.787 218.619,89.100 218.165 C 89.265 217.926,90.255 217.482,91.300 217.178 C 92.345 216.874,93.200 216.485,93.200 216.313 C 93.200 216.141,93.560 216.000,94.000 216.000 C 94.440 216.000,94.800 215.820,94.800 215.600 C 94.800 215.380,94.755 215.211,94.700 215.225 C 94.645 215.239,93.270 215.795,91.645 216.459 " stroke="none" fill="#66ac6b" fill-rule="evenodd"></path>
        <path id="path4" d="M109.862 30.494 C 109.608 30.656,108.815 30.791,108.100 30.794 C 107.385 30.797,106.800 30.980,106.800 31.200 C 106.800 31.420,106.510 31.600,106.156 31.600 C 105.435 31.600,100.674 34.024,100.467 34.497 C 100.393 34.663,100.078 34.800,99.767 34.800 C 99.455 34.800,99.200 34.980,99.200 35.200 C 99.200 35.420,98.964 35.600,98.675 35.600 C 98.387 35.600,97.764 35.960,97.292 36.400 C 96.820 36.840,96.235 37.200,95.993 37.200 C 95.751 37.200,95.664 37.380,95.800 37.600 C 95.936 37.820,95.849 38.000,95.607 38.000 C 95.365 38.000,94.802 38.340,94.356 38.755 L 93.546 39.510 94.873 41.040 C 95.603 41.881,97.055 43.413,98.100 44.445 C 101.296 47.600,100.207 50.754,93.887 56.646 C 88.063 62.076,86.774 62.234,82.600 58.028 C 80.840 56.255,79.084 54.803,78.698 54.802 C 77.888 54.800,74.015 59.833,74.006 60.900 C 74.003 61.285,73.820 61.600,73.600 61.600 C 73.380 61.600,73.200 61.870,73.200 62.200 C 73.200 62.530,73.020 62.800,72.800 62.800 C 72.580 62.800,72.396 63.025,72.391 63.300 C 72.386 63.575,72.030 64.250,71.600 64.800 C 71.170 65.350,70.814 66.194,70.809 66.676 C 70.804 67.158,70.620 67.664,70.400 67.800 C 70.180 67.936,70.000 68.656,70.000 69.400 C 70.000 70.144,69.820 70.864,69.600 71.000 C 68.910 71.426,69.164 73.275,70.014 74.012 C 70.461 74.400,70.776 74.961,70.714 75.259 C 70.625 75.683,71.345 75.793,74.034 75.766 C 89.227 75.618,120.021 41.962,114.114 31.962 C 113.736 31.323,113.196 30.800,112.914 30.800 C 112.631 30.800,112.400 30.665,112.400 30.500 C 112.400 30.114,110.466 30.109,109.862 30.494 M170.800 47.751 C 170.800 48.316,171.381 48.389,175.300 48.316 L 179.800 48.233 175.822 48.101 C 173.635 48.028,171.610 47.774,171.322 47.536 C 170.929 47.209,170.800 47.262,170.800 47.751 M209.600 48.822 C 216.530 48.971,227.240 49.082,233.400 49.070 L 244.600 49.047 232.600 48.780 C 226.000 48.634,215.290 48.522,208.800 48.532 L 197.000 48.551 209.600 48.822 M256.046 49.467 C 256.021 49.724,255.884 50.264,255.741 50.667 C 255.540 51.236,255.594 51.297,255.979 50.942 C 256.252 50.691,256.389 50.151,256.284 49.742 C 256.179 49.334,256.072 49.210,256.046 49.467 M131.268 51.800 C 131.272 54.000,131.304 54.089,131.657 52.863 C 131.905 52.002,131.903 51.147,131.653 50.463 C 131.326 49.571,131.264 49.785,131.268 51.800 M130.072 56.913 C 129.592 58.069,129.207 59.192,129.216 59.408 C 129.225 59.623,129.686 58.746,130.240 57.457 C 130.794 56.169,131.179 55.046,131.095 54.962 C 131.012 54.878,130.551 55.756,130.072 56.913 M252.483 58.213 L 251.207 60.800 247.104 60.884 L 243.000 60.967 246.941 61.099 C 251.481 61.250,251.573 61.204,252.995 58.099 C 254.417 54.993,254.029 55.079,252.483 58.213 M155.511 59.928 C 155.132 60.078,158.012 60.151,161.911 60.092 C 172.283 59.933,173.372 59.746,164.200 59.698 C 159.800 59.675,155.890 59.779,155.511 59.928 M183.927 60.300 C 188.617 60.364,196.177 60.364,200.727 60.299 C 205.277 60.235,201.440 60.183,192.200 60.183 C 182.960 60.183,179.237 60.236,183.927 60.300 M222.300 60.699 C 225.215 60.767,229.985 60.767,232.900 60.699 C 235.815 60.631,233.430 60.575,227.600 60.575 C 221.770 60.575,219.385 60.631,222.300 60.699 M97.171 90.533 C 94.111 92.085,88.966 92.726,87.926 91.686 C 87.659 91.419,87.161 91.207,86.820 91.215 C 86.479 91.223,86.995 91.602,87.968 92.057 C 89.349 92.704,90.161 92.829,91.684 92.627 C 93.457 92.391,94.098 92.202,96.600 91.171 C 97.040 90.990,97.760 90.783,98.200 90.711 C 98.661 90.636,98.818 90.467,98.571 90.311 C 98.336 90.163,97.706 90.263,97.171 90.533 M98.687 117.300 C 98.577 117.795,98.616 123.780,98.775 130.600 L 99.063 143.000 99.131 129.700 C 99.197 116.981,99.136 115.279,98.687 117.300 M183.400 118.570 C 172.693 120.879,163.274 128.805,159.240 138.900 C 157.387 143.538,157.000 145.732,157.000 151.600 C 157.000 157.113,157.137 158.088,158.487 162.200 C 159.326 164.755,161.235 168.803,161.599 168.797 C 161.710 168.795,163.150 167.598,164.800 166.137 C 177.380 154.999,192.958 139.462,204.031 127.011 C 205.004 125.916,206.205 124.568,206.700 124.015 C 207.920 122.650,207.877 122.544,205.700 121.568 C 204.655 121.099,203.260 120.470,202.600 120.170 C 198.481 118.297,188.516 117.466,183.400 118.570 M86.629 132.245 C 86.826 132.660,87.089 137.320,87.214 142.600 L 87.441 152.200 87.421 142.033 C 87.404 133.655,87.301 131.833,86.836 131.679 C 86.409 131.536,86.359 131.674,86.629 132.245 M99.332 172.000 C 99.320 178.710,99.431 189.330,99.579 195.600 L 99.849 207.000 99.867 197.200 C 99.877 191.810,99.766 181.190,99.620 173.600 L 99.354 159.800 99.332 172.000 M87.731 181.800 C 87.719 186.860,87.831 196.850,87.979 204.000 L 88.248 217.000 88.268 206.600 C 88.279 200.880,88.167 190.890,88.020 184.400 L 87.752 172.600 87.731 181.800 M98.400 213.030 C 97.850 213.333,96.528 213.958,95.461 214.418 C 94.395 214.879,93.608 215.341,93.713 215.446 C 93.886 215.620,99.467 213.066,99.934 212.599 C 100.310 212.223,99.400 212.478,98.400 213.030 M91.000 216.429 C 90.120 216.852,89.850 217.086,90.400 216.949 C 91.533 216.667,93.612 215.625,93.000 215.646 C 92.780 215.653,91.880 216.006,91.000 216.429 M230.600 231.239 C 226.702 233.972,224.012 235.713,221.300 237.259 C 220.585 237.667,219.325 238.390,218.500 238.867 C 215.417 240.648,209.453 243.600,208.936 243.600 C 208.641 243.600,208.400 243.780,208.400 244.000 C 208.400 244.220,208.040 244.400,207.600 244.400 C 207.160 244.400,206.800 244.580,206.800 244.800 C 206.800 245.020,206.528 245.200,206.195 245.200 C 205.862 245.200,205.277 245.365,204.895 245.567 C 203.566 246.270,200.407 247.600,200.066 247.600 C 199.638 247.600,198.400 248.943,198.400 249.408 C 198.400 249.598,198.625 249.464,198.900 249.110 C 199.175 248.757,201.020 247.807,203.000 246.999 C 207.258 245.262,215.736 241.174,218.585 239.484 C 219.693 238.826,221.140 237.978,221.800 237.598 C 225.211 235.638,226.507 234.826,229.912 232.517 C 231.953 231.133,233.888 230.000,234.212 230.000 C 234.535 230.000,234.800 229.820,234.800 229.600 C 234.800 228.761,233.299 229.347,230.600 231.239 " stroke="none" fill="#66ac6b" fill-rule="evenodd"></path>
    </g>
</svg>