<?xml version="1.0" standalone="no"?>
<!DOCTYPE svg PUBLIC "-//W3C//DTD SVG 20010904//EN"
 "http://www.w3.org/TR/2001/REC-SVG-20010904/DTD/svg10.dtd">
<svg version="1.0" xmlns="http://www.w3.org/2000/svg"
 width="512.000000pt" height="512.000000pt" viewBox="0 0 512.000000 512.000000"
 preserveAspectRatio="xMidYMid meet">

<g transform="translate(0.000000,512.000000) scale(0.100000,-0.100000)"
fill="#000000" stroke="none">
<path d="M1855 4954 c-325 -32 -564 -87 -825 -191 -136 -54 -319 -145 -361
-180 -33 -28 -38 -66 -14 -100 30 -43 55 -38 212 41 411 206 832 299 1273 282
410 -15 787 -116 1136 -302 56 -30 109 -54 117 -54 8 0 26 9 41 21 33 26 36
79 5 110 -31 31 -301 160 -443 212 -157 58 -367 111 -544 137 -131 20 -493 34
-597 24z"/>
<path d="M1810 4609 c-215 -22 -578 -114 -624 -159 -24 -24 -25 -74 -1 -100
26 -28 63 -25 190 16 431 137 927 137 1354 -1 132 -43 162 -44 190 -9 48 61
14 102 -117 144 -127 41 -272 75 -402 95 -128 19 -460 27 -590 14z"/>
<path d="M1800 4255 c-562 -70 -1063 -362 -1404 -820 -195 -262 -327 -575
-381 -905 -20 -127 -21 -498 0 -632 57 -382 249 -792 488 -1045 65 -69 116
-72 142 -9 17 40 8 60 -65 147 -92 110 -175 241 -245 384 -420 866 -139 1891
666 2430 107 71 317 175 435 214 337 112 689 131 1033 55 160 -36 263 -73 436
-159 368 -183 652 -462 840 -827 284 -549 288 -1181 12 -1733 -461 -924 -1586
-1315 -2515 -875 -115 55 -240 128 -321 189 -73 55 -118 55 -146 0 -28 -54 9
-96 180 -204 521 -329 1179 -405 1762 -204 310 107 564 268 803 509 l115 116
345 148 c504 216 539 236 664 362 111 114 180 239 222 403 23 91 24 103 24
518 l0 425 68 67 c156 152 194 360 101 549 -91 185 -313 297 -504 252 -47 -11
-65 -32 -65 -75 0 -55 27 -69 138 -70 78 -1 106 -5 142 -23 71 -34 114 -75
151 -144 31 -58 34 -70 33 -148 0 -73 -4 -93 -27 -137 -60 -116 -160 -178
-287 -178 -129 0 -235 67 -287 182 -36 78 -40 146 -14 231 27 90 27 106 -5
131 -54 43 -102 19 -133 -64 -46 -124 -34 -281 31 -395 17 -30 60 -83 95 -117
l64 -61 -3 -404 c-4 -447 -4 -442 -73 -544 -44 -63 -100 -104 -205 -149 -45
-19 -83 -35 -84 -35 -1 0 10 49 25 108 80 317 77 694 -7 1012 -94 358 -274
671 -539 936 -447 448 -1078 666 -1705 589z m2940 -1961 c0 -446 -4 -476 -82
-627 -53 -103 -181 -237 -278 -290 -52 -29 -287 -133 -549 -243 l-33 -14 18
28 c10 15 46 81 79 146 l61 120 139 61 c77 34 154 69 171 78 103 54 201 173
245 297 22 63 23 79 27 450 l4 385 99 0 99 0 0 -391z"/>
<path d="M1955 3778 c-126 -47 -205 -170 -205 -318 0 -100 29 -171 100 -242
61 -61 124 -88 205 -88 107 0 220 80 270 192 70 156 11 351 -132 435 -38 22
-61 27 -127 30 -45 1 -94 -2 -111 -9z m172 -158 c78 -47 103 -182 49 -263 -66
-97 -173 -102 -243 -11 -58 77 -37 224 40 273 42 27 111 27 154 1z"/>
<path d="M1272 3727 c-19 -20 -22 -35 -22 -111 0 -79 2 -89 25 -111 13 -14 36
-25 50 -25 14 0 37 11 50 25 23 22 25 32 25 108 0 70 -3 89 -21 111 -27 34
-77 36 -107 3z"/>
<path d="M2721 3724 c-17 -22 -21 -41 -21 -101 0 -90 17 -129 61 -138 23 -5
38 -2 58 12 24 19 26 26 29 116 2 86 0 99 -18 117 -30 30 -83 27 -109 -6z"/>
<path d="M1865 3074 c-146 -31 -297 -111 -412 -218 -409 -380 -369 -1036 83
-1362 143 -102 293 -153 475 -161 192 -8 340 29 506 129 132 79 285 258 347
406 89 212 89 473 0 684 -110 261 -359 465 -636 522 -96 20 -269 20 -363 0z
m410 -167 c245 -80 429 -281 490 -534 24 -100 17 -290 -15 -383 -78 -229 -249
-402 -475 -477 -72 -25 -95 -27 -225 -27 -133 -1 -151 2 -225 27 -225 79 -394
247 -472 472 -25 73 -27 92 -27 225 0 133 2 152 27 225 86 246 270 418 519
485 107 29 292 23 403 -13z"/>
<path d="M1915 2776 c-127 -31 -251 -113 -329 -217 -54 -71 -60 -113 -23 -147
39 -37 95 -25 121 26 20 39 87 106 138 138 184 117 447 67 574 -108 47 -64 62
-77 92 -78 35 0 59 16 70 49 33 95 -184 292 -369 336 -76 18 -204 18 -274 1z"/>
<path d="M1900 2488 c-38 -19 -53 -37 -98 -113 -91 -157 -91 -175 1 -330 71
-120 98 -135 247 -135 166 0 191 18 295 219 39 74 32 114 -41 237 -78 130
-102 144 -254 144 -90 0 -112 -3 -150 -22z m278 -203 l44 -75 -44 -75 -43 -75
-85 2 -84 3 -43 72 -42 73 36 62 c53 92 46 88 137 88 l81 0 43 -75z"/>
<path d="M3258 1782 c-140 -140 -150 -160 -103 -207 47 -47 67 -37 207 103
140 140 150 160 103 207 -47 47 -67 37 -207 -103z"/>
<path d="M3335 1490 c-11 -4 -57 -46 -102 -92 -97 -98 -111 -131 -70 -172 47
-47 71 -37 180 72 82 82 97 102 97 129 0 22 -8 38 -26 52 -28 22 -47 25 -79
11z"/>
</g>
</svg>
